<svg width="124" height="28" viewBox="0 0 124 28" fill="none" xmlns="http://www.w3.org/2000/svg">
<path d="M23.6193 13.9091C23.6193 16.7045 23.108 19.108 22.0852 21.1193C21.0625 23.1222 19.6605 24.6648 17.8793 25.7472C16.1065 26.821 14.0909 27.358 11.8324 27.358C9.56534 27.358 7.54119 26.821 5.75994 25.7472C3.98722 24.6648 2.58949 23.1179 1.56676 21.1065C0.544034 19.0952 0.0326705 16.696 0.0326705 13.9091C0.0326705 11.1136 0.544034 8.71449 1.56676 6.71165C2.58949 4.70028 3.98722 3.15767 5.75994 2.08381C7.54119 1.00142 9.56534 0.460226 11.8324 0.460226C14.0909 0.460226 16.1065 1.00142 17.8793 2.08381C19.6605 3.15767 21.0625 4.70028 22.0852 6.71165C23.108 8.71449 23.6193 11.1136 23.6193 13.9091ZM19.7074 13.9091C19.7074 11.7784 19.3622 9.98437 18.6719 8.52699C17.9901 7.06108 17.0526 5.95313 15.8594 5.20312C14.6747 4.4446 13.3324 4.06534 11.8324 4.06534C10.3239 4.06534 8.97727 4.4446 7.79261 5.20312C6.60795 5.95313 5.67045 7.06108 4.98011 8.52699C4.2983 9.98437 3.95739 11.7784 3.95739 13.9091C3.95739 16.0398 4.2983 17.8381 4.98011 19.304C5.67045 20.7614 6.60795 21.8693 7.79261 22.6278C8.97727 23.3778 10.3239 23.7528 11.8324 23.7528C13.3324 23.7528 14.6747 23.3778 15.8594 22.6278C17.0526 21.8693 17.9901 20.7614 18.6719 19.304C19.3622 17.8381 19.7074 16.0398 19.7074 13.9091ZM38.0717 0.818181H42.8658L51.201 21.1705H51.5078L59.843 0.818181H64.6371V27H60.8786V8.05398H60.6357L52.9141 26.9616H49.7947L42.0732 8.04119H41.8303V27H38.0717V0.818181ZM91.5124 0.818181V27H87.8817L74.5735 7.7983H74.3306V27H70.3803V0.818181H74.0366L87.3576 20.0455H87.6005V0.818181H91.5124ZM101.225 0.818181V27H97.2749V0.818181H101.225ZM106.978 27V0.818181H123.393V4.21875H110.928V12.196H122.536V15.5838H110.928V23.5994H123.546V27H106.978Z" fill="#F1EEEA"/>
</svg>
