<svg width="107" height="488" viewBox="0 0 107 488" fill="none" xmlns="http://www.w3.org/2000/svg">
<path d="M53.3636 394.946C20.3345 394.946 0.315337 414.713 0.315337 441.439C0.315337 468.266 20.3345 487.982 53.3636 487.982C86.3423 487.982 106.412 468.266 106.412 441.439C106.412 414.713 86.3928 394.946 53.3636 394.946ZM53.3636 410.376C78.5263 410.376 92.1918 423.689 92.1918 441.439C92.1918 459.239 78.5263 472.501 53.3636 472.501C28.201 472.501 14.5355 459.239 14.5355 441.439C14.5355 423.689 28.201 410.376 53.3636 410.376ZM1.72727 337.939H105V323.114H30.218V322.156L104.849 291.699V279.395L30.2685 248.937V247.979H105V233.154H1.72727V252.064L82.0057 284.941V286.152L1.72727 319.029L1.72727 337.939ZM1.72727 127.145V142.576H77.5682V143.534L1.72727 196.078L1.72727 210.5H105V194.918H29.2599V193.96L105 141.466V127.145H1.72727ZM1.72727 88.8342L1.72727 104.416H105V88.8342H1.72727ZM105 66.1424V0.790123H91.5866V50.5607H59.9695V4.77379H46.6065V50.5607H15.1406V1.39524H1.72727V66.1424H105Z" fill="#F1EEEA"/>
</svg>
