<svg width="106" height="629" viewBox="0 0 106 629" fill="none" xmlns="http://www.w3.org/2000/svg">
<path d="M59.7734 599.203L72.0781 610.805H104V628.594H1.625L1.625 610.805H49.6484L37.4844 600.961L1.625 571.008V549.492L46.9766 587.531L104 547.312V568.406L59.7734 599.203ZM55.4844 458.297C65.5156 458.297 74.3281 460.031 81.9219 463.5C89.4688 466.969 95.2813 471.938 99.3594 478.406C103.391 484.828 105.406 492.234 105.406 500.625C105.406 508.922 103.391 516.328 99.3594 522.844C95.2813 529.312 89.4922 534.328 81.9922 537.891C74.4922 541.406 65.8438 543.188 56.0469 543.234H50.2813C40.2969 543.234 31.4844 541.477 23.8438 537.961C16.2031 534.398 10.3672 529.406 6.33594 522.984C2.25781 516.516 0.21875 509.109 0.21875 500.766C0.21875 492.422 2.23438 485.039 6.26563 478.617C10.25 472.148 16.0156 467.156 23.5625 463.641C31.0625 460.125 39.8047 458.344 49.7891 458.297H55.4844ZM50.1406 476.086C38.7969 476.086 30.1016 478.242 24.0547 482.555C18.0078 486.82 14.9844 492.891 14.9844 500.766C14.9844 508.453 18.0078 514.477 24.0547 518.836C30.0547 523.148 38.5625 525.352 49.5781 525.445H55.4844C66.7344 525.445 75.4297 523.266 81.5703 518.906C87.7109 514.5 90.7813 508.406 90.7813 500.625C90.7813 492.75 87.7813 486.703 81.7813 482.484C75.7813 478.219 67.0156 476.086 55.4844 476.086H50.1406ZM104 359.367V377.156L31.3672 422.789H104V440.578H1.625V422.789L74.5391 377.016H1.625L1.625 359.367H104ZM15.9688 266.484V298.406H104V316.055H15.9688V347.695H1.625L1.625 266.484H15.9688ZM80.1641 204.117V243.773L104 252.07V270.562L1.625 231.891L1.625 215.93L104 177.188V195.75L80.1641 204.117ZM65.8203 238.781V209.109L23.3516 223.945L65.8203 238.781ZM59.7734 136.125L72.0781 147.727H104V165.516H1.625L1.625 147.727H49.6484L37.4844 137.883L1.625 107.93L1.625 86.4141L46.9766 124.453L104 84.2344V105.328L59.7734 136.125ZM15.9688 0.703125V32.625H104V50.2734H15.9688V81.9141H1.625L1.625 0.703125H15.9688Z" fill="white" fill-opacity="0.5"/>
</svg>
