<svg width="159" height="27" viewBox="0 0 159 27" fill="none" xmlns="http://www.w3.org/2000/svg">
<path d="M5.01367 0.40625L5.01367 26H0.601562L0.601562 0.40625L5.01367 0.40625ZM20.3945 0.40625L10.0234 12.7285L4.11719 18.9863L3.34375 14.6094L7.5625 9.40625L15.0156 0.40625L20.3945 0.40625ZM15.6484 26L7.22852 13.8711L10.2695 10.8652L20.8867 26H15.6484ZM43.1934 12.5V13.9063C43.1934 15.8398 42.9414 17.5742 42.4375 19.1094C41.9336 20.6445 41.2129 21.9512 40.2754 23.0293C39.3496 24.1074 38.2363 24.9336 36.9355 25.5078C35.6348 26.0703 34.1934 26.3516 32.6113 26.3516C31.041 26.3516 29.6055 26.0703 28.3047 25.5078C27.0156 24.9336 25.8965 24.1074 24.9473 23.0293C23.998 21.9512 23.2598 20.6445 22.7324 19.1094C22.2168 17.5742 21.959 15.8398 21.959 13.9063V12.5C21.959 10.5664 22.2168 8.83789 22.7324 7.31445C23.248 5.7793 23.9746 4.47266 24.9121 3.39453C25.8613 2.30469 26.9805 1.47852 28.2695 0.916016C29.5703 0.341797 31.0059 0.0546875 32.5762 0.0546875C34.1582 0.0546875 35.5996 0.341797 36.9004 0.916016C38.2012 1.47852 39.3203 2.30469 40.2578 3.39453C41.1953 4.47266 41.916 5.7793 42.4199 7.31445C42.9355 8.83789 43.1934 10.5664 43.1934 12.5ZM38.7812 13.9063V12.4648C38.7812 11.0352 38.6406 9.77539 38.3594 8.68555C38.0898 7.58398 37.6855 6.66406 37.1465 5.92578C36.6191 5.17578 35.9688 4.61328 35.1953 4.23828C34.4219 3.85156 33.5488 3.6582 32.5762 3.6582C31.6035 3.6582 30.7363 3.85156 29.9746 4.23828C29.2129 4.61328 28.5625 5.17578 28.0234 5.92578C27.4961 6.66406 27.0918 7.58398 26.8105 8.68555C26.5293 9.77539 26.3887 11.0352 26.3887 12.4648V13.9063C26.3887 15.3359 26.5293 16.6016 26.8105 17.7031C27.0918 18.8047 27.502 19.7363 28.041 20.498C28.5918 21.248 29.248 21.8164 30.0098 22.2031C30.7715 22.5781 31.6387 22.7656 32.6113 22.7656C33.5957 22.7656 34.4688 22.5781 35.2305 22.2031C35.9922 21.8164 36.6367 21.248 37.1641 20.498C37.6914 19.7363 38.0898 18.8047 38.3594 17.7031C38.6406 16.6016 38.7812 15.3359 38.7812 13.9063ZM67.9082 0.40625V26H63.4961L52.0176 7.66602V26H47.6055V0.40625L52.0176 0.40625L63.5312 18.7754V0.40625H67.9082ZM83.166 0.40625V26H78.7891V0.40625H83.166ZM91.1992 0.40625V3.92188L70.8262 3.92188V0.40625L91.1992 0.40625ZM102.854 3.81641L95.207 26H90.584L100.217 0.40625H103.17L102.854 3.81641ZM109.252 26L101.588 3.81641L101.254 0.40625H104.225L113.893 26H109.252ZM108.883 16.5078V20.0059H94.9609V16.5078H108.883ZM121.17 0.40625V26H116.758V0.40625L121.17 0.40625ZM136.551 0.40625L126.18 12.7285L120.273 18.9863L119.5 14.6094L123.719 9.40625L131.172 0.40625H136.551ZM131.805 26L123.385 13.8711L126.426 10.8652L137.043 26L131.805 26ZM150.033 0.40625V26H145.656V0.40625H150.033ZM158.066 0.40625V3.92188L137.693 3.92188V0.40625L158.066 0.40625Z" fill="white" fill-opacity="0.5"/>
</svg>
