<?xml version="1.0" encoding="utf-8"?>
<!-- Generator: Adobe Illustrator 24.1.2, SVG Export Plug-In . SVG Version: 6.00 Build 0)  -->
<svg version="1.1" id="Слой_1" xmlns="http://www.w3.org/2000/svg" xmlns:xlink="http://www.w3.org/1999/xlink" x="0px" y="0px"
	 viewBox="0 0 1366 768" style="enable-background:new 0 0 1366 768;" xml:space="preserve">
<style type="text/css">
	.st0{fill:url(#SVGID_1_);}
	.st1{fill:url(#SVGID_2_);}
	.st2{fill:url(#SVGID_3_);}
	.st3{fill:url(#SVGID_4_);}
</style>
<g>
	<g>
		<linearGradient id="SVGID_1_" gradientUnits="userSpaceOnUse" x1="644.4568" y1="18.493" x2="758.0723" y2="728.254">
			<stop  offset="0" style="stop-color:#BB7F85"/>
			<stop  offset="0.1093" style="stop-color:#DD9B9C"/>
			<stop  offset="0.1975" style="stop-color:#F4AEAC"/>
			<stop  offset="0.295" style="stop-color:#F6C7C6"/>
			<stop  offset="0.3858" style="stop-color:#F8DADA"/>
			<stop  offset="0.7116" style="stop-color:#B27780"/>
			<stop  offset="0.8452" style="stop-color:#D7A0A7"/>
			<stop  offset="1" style="stop-color:#FFCBD1"/>
		</linearGradient>
		<path class="st0" d="M905.71,602.03c10.1-7.8,20.67-15.04,32.73-19.59c12.43-4.93,22.54-14.3,32.1-23.44
			c19.45-18.23,22.23-45.76,25.45-70.71c0.82-4.39,1.63-8.78,2.42-13.18l77.83-77.83c0.49-0.49,0.77-1.16,0.77-1.85
			c0-0.69-0.28-1.36-0.77-1.85l-69.62-69.62c-2.51-7.16-5.62-14.16-8.63-21.13c-7.9-16.11-11.57-33.57-12.35-51.42
			c-0.01-2.91-0.23-5.91,0.4-8.73c0.03-0.07,0.05-0.16,0.1-0.22c0,0,0,0,0,0c0.2-0.26-0.18-0.61-0.42-0.38
			c-0.02,0.02-0.03,0.04-0.05,0.05c0,0,0,0,0,0c-0.03,0.04-0.05,0.07-0.08,0.1c0,0,0,0,0.01-0.01c-0.01,0.01-0.03,0.03-0.04,0.04
			c-6.37,14.34-11.52,30.05-10.71,46.01c0-0.06,0-0.13,0-0.2c0.03,1.43,0.09,2.86,0.18,4.28l-20.63-20.63
			c-0.72-7.02-2.55-13.99-4.42-20.75c-5.58-21.02-24.28-33.66-40.96-45.62c-11.71-9.42-23.5-18.82-35.72-27.5
			c-0.2-0.18-0.42-0.49-0.7-0.33c-0.27,0.24,0,0.54,0.12,0.8c0,0,0,0,0-0.01c0.01,0.02,0.02,0.04,0.03,0.07
			c0-0.01-0.01-0.02-0.01-0.03c0.06,0.13,0.12,0.26,0.18,0.38c-0.01-0.02-0.02-0.05-0.03-0.07c1.79,3.92,4.93,7.07,7.02,10.84
			c1.92,3.9,2.9,8.17,4.49,12.21L706.65,24c-0.49-0.49-1.16-0.77-1.85-0.77c-0.69,0-1.36,0.28-1.85,0.77L524.72,202.22
			c1.71-4.18,2.69-8.64,4.69-12.71c2.09-3.78,5.23-6.92,7.02-10.84c-0.01,0.02-0.02,0.05-0.03,0.07c0.06-0.13,0.12-0.25,0.18-0.38
			c0,0.01-0.01,0.02-0.01,0.03c0.01-0.02,0.02-0.04,0.03-0.07c0,0,0,0,0,0.01c0.12-0.26,0.39-0.55,0.12-0.8
			c-0.29-0.16-0.51,0.15-0.71,0.33c-12.22,8.69-24.01,18.09-35.72,27.5c-16.68,11.96-35.38,24.6-40.96,45.62
			c-1.9,6.86-3.76,13.94-4.45,21.08l-20.62,20.62c0.1-1.53,0.17-3.06,0.2-4.6c0,0.07,0,0.13,0,0.2
			c0.81-15.96-4.34-31.67-10.71-46.01c-0.01-0.01-0.03-0.03-0.04-0.04c0,0,0.01,0,0.01,0.01c-0.03-0.03-0.05-0.07-0.08-0.1
			c0,0,0,0,0,0c-0.01-0.02-0.03-0.04-0.05-0.05c-0.24-0.23-0.62,0.12-0.42,0.38c0,0,0,0,0,0c0.05,0.07,0.07,0.15,0.1,0.22
			c0.63,2.82,0.41,5.82,0.4,8.73c-0.79,17.85-4.45,35.3-12.35,51.42c-3.07,7.12-6.25,14.27-8.79,21.59l-69.16,69.16
			c-1.02,1.02-1.02,2.68,0,3.7l77.46,77.46c0.82,4.52,1.65,9.04,2.49,13.55c3.22,24.95,6.01,52.48,25.45,70.71
			c9.55,9.13,19.67,18.5,32.1,23.44c12.05,4.56,22.63,11.79,32.73,19.59c3.72,3.88,7.16,8.12,10.3,12.5
			c-0.04-0.06-0.08-0.11-0.11-0.17c9.66,12.8,21.47,24.18,33.22,35.08c0.04,0.04,0.09,0.08,0.14,0.12c-0.03-0.03-0.07-0.05-0.1-0.08
			c17.46,18.43,39.64,31.3,60.89,44.8c-0.31-0.03-0.61-0.06-0.92-0.1c-14.37-2.67-30.08-2.84-43.53-8.44
			c-22.56-17.16-42.12-38.08-65.33-54.57c0.09,0.06,0.18,0.13,0.27,0.19c-11.26-8.14-21.89-17.09-34.04-23.94
			c0.07,0.04,0.14,0.08,0.21,0.11c-16.76-10.14-36.71-13.7-55.89-15.15c-0.02,0.01-0.05,0.01-0.07,0.02c0,0,0.01,0,0.01,0
			c-0.05,0.01-0.1,0.02-0.16,0.03c0,0,0,0,0,0c-0.03,0-0.06,0.01-0.09,0.02c-0.38,0.12-0.22,0.74,0.17,0.67c0,0,0,0,0,0
			c0.1-0.01,0.2,0.02,0.3,0.02c3.41,0.96,6.52,2.94,9.65,4.64c18.81,11.21,35.52,25.31,48.33,43.19c13,16.39,25.83,33.44,44.73,43.4
			c10.67,8,22.55,15.71,36.28,16.34c20.02,0.59,39.49-7,59.63-3.7c-0.12-0.01-0.24-0.03-0.36-0.04c12.3,1.37,22.16,9.98,33.28,14.84
			c-0.09-0.04-0.17-0.08-0.25-0.13c4.55,1.95,9.04,3.98,13.56,5.99l49.24,49.24c0.49,0.49,1.16,0.77,1.85,0.77
			c0.69,0,1.36-0.28,1.85-0.77l49.48-49.48c4.34-1.93,8.65-3.88,13.02-5.75c-0.08,0.04-0.17,0.08-0.25,0.13
			c11.12-4.85,20.98-13.47,33.28-14.84c-0.12,0.01-0.24,0.03-0.36,0.04c20.13-3.29,39.61,4.3,59.63,3.7
			c13.73-0.62,25.61-8.34,36.27-16.34c18.9-9.96,31.73-27,44.73-43.4c12.81-17.88,29.52-31.98,48.33-43.19
			c3.14-1.7,6.24-3.68,9.65-4.64c0.1-0.01,0.2-0.03,0.3-0.02c0,0,0,0,0,0c0.39,0.07,0.55-0.55,0.17-0.67
			c-0.03-0.01-0.06-0.01-0.09-0.02c0,0,0,0,0,0c-0.05-0.01-0.11-0.02-0.16-0.03c0,0,0.01,0,0.01,0c-0.02-0.01-0.05-0.01-0.07-0.02
			c-19.18,1.45-39.13,5.01-55.89,15.15c0.07-0.04,0.14-0.08,0.21-0.11c-12.14,6.85-22.78,15.8-34.04,23.94
			c0.09-0.06,0.18-0.13,0.27-0.19c-23.21,16.5-42.77,37.41-65.33,54.57c-13.45,5.6-29.16,5.76-43.53,8.44
			c-0.31,0.04-0.61,0.07-0.92,0.1c21.25-13.49,43.43-26.37,60.89-44.8c-0.03,0.03-0.07,0.06-0.1,0.08c0.05-0.04,0.09-0.08,0.14-0.12
			c11.75-10.9,23.56-22.27,33.22-35.08c-0.03,0.06-0.07,0.11-0.11,0.17C898.55,610.15,901.99,605.91,905.71,602.03z M907.42,597.06
			c14.81-21.38,27.83-44.42,37.68-68.64l9.93-9.93c-1.55,9.57-2.45,19.26-4.57,28.72c-0.92,3.39-2.05,7.13-4.25,10.06
			c0-0.01,0.01-0.01,0.01-0.02c-2.7,3.6-6.47,6.19-9.44,9.54c-3.11,4.16-4.68,9.28-8.27,13.11
			C922.33,586.66,914.38,591.24,907.42,597.06z M996.51,467.82c-0.02,0.32-0.04,0.64-0.06,0.96c-0.08,0.37-0.15,0.73-0.22,1.1
			l-7.5,7.5c3.73-8.53,7.34-17.12,10.36-25.96C998.28,456.89,996.92,462.31,996.51,467.82z M983.79,482.33l-22.46,22.46
			c6.54-20.53,21.25-37.49,35.38-53.33C992.39,461.73,988.12,472.04,983.79,482.33z M978.34,495.18
			c-7.72,18.06-15.73,35.99-24.52,53.52c1.84-11.35,3.15-22.8,5.13-34.12L978.34,495.18z M946.69,559.5
			c-3.47,4.38-7,8.69-10.4,13.13c0.23-0.63,0.47-1.25,0.7-1.87C939.11,566.15,942.89,562.74,946.69,559.5z M976.97,546.71
			c-8.59,11.87-20.26,21.82-32.79,29.22c-0.56,0.23-1.12,0.45-1.67,0.69c0.04-0.02,0.07-0.03,0.11-0.05
			c-2.87,0.98-5.67,2.09-8.54,3.03c0.24-0.2,0.48-0.4,0.7-0.62c19.57-19.55,30.45-45.12,40.55-70.42
			c2.37-6.04,4.94-11.99,7.55-17.93l11.76-11.76C990.99,502.16,990.1,526.52,976.97,546.71z M1070.68,395.43L1000,466.12
			c1.87-10.76,3.58-21.55,4.93-32.35c0.09-0.32,0.29-0.74-0.05-0.95c-0.42-0.15-0.58,0.31-0.79,0.59c0,0,0,0,0.01-0.01
			c-0.02,0.02-0.04,0.05-0.05,0.07c0.01-0.01,0.01-0.02,0.02-0.03c-0.1,0.14-0.21,0.28-0.31,0.42c0.02-0.02,0.04-0.05,0.06-0.07
			c-3.19,4.21-4.76,9.43-7.63,13.87c-3.34,4.67-7.78,8.41-11.36,12.88c-1.31,1.58-2.59,3.17-3.86,4.78
			c0.26-3.55,0.52-7.09,0.83-10.64c0,0.08,0,0.15-0.01,0.23c0.81-9.86-1.57-20.28,2.2-29.65c-0.04,0.09-0.07,0.18-0.11,0.27
			c5.42-15.74,18.4-26.8,25.71-41.41c4.86-10.1,3.91-21.62,2.28-32.38c0.05-5.9-0.75-11.62-2.1-17.21L1070.68,395.43z
			 M978.85,321.53c2.88,23.05,10.35,45.19,13.96,68.03c-1.18,11.83-7.13,23.18-10.76,34.54c-0.09,0.23-0.19,0.47-0.28,0.7
			c-1.48-20.49-2.16-41.4-8.65-61.06c0.01,0.04,0.01,0.07,0.02,0.1c-0.01-0.05-0.02-0.09-0.03-0.14
			c-3.29-12.65-6.89-25.54-12.36-37.42c0.03,0.04,0.05,0.09,0.08,0.14c-1.93-3.94-3.65-8.05-5-12.23
			c-1.7-10.27-2.81-20.67-1.43-31.09c0.14-1.23,0.23-2.46,0.27-3.68l21.13,21.13c0.87,7.1,2.14,14.15,3.09,21.25
			C978.88,321.71,978.86,321.62,978.85,321.53z M454.64,279.71c0.05,1.13,0.12,2.27,0.26,3.4c1.38,10.42,0.27,20.81-1.43,31.09
			c-1.35,4.17-3.07,8.28-5,12.23c0.03-0.05,0.05-0.1,0.08-0.14c-5.47,11.89-9.07,24.77-12.36,37.42c-0.01,0.05-0.02,0.09-0.03,0.14
			c0.01-0.03,0.01-0.07,0.02-0.1c-6.49,19.67-7.17,40.58-8.65,61.06c-0.1-0.23-0.19-0.47-0.28-0.7
			c-3.63-11.36-9.59-22.71-10.76-34.54c3.61-22.84,11.08-44.98,13.96-68.03c-0.01,0.09-0.02,0.18-0.03,0.27
			c0.93-6.99,2.18-13.92,3.05-20.91L454.64,279.71z M338.91,395.43l60.51-60.51c-1.29,5.47-2.06,11.05-2.01,16.82
			c-1.62,10.76-2.58,22.27,2.28,32.38c7.31,14.61,20.29,25.67,25.71,41.41c-0.04-0.09-0.07-0.18-0.11-0.27
			c3.77,9.37,1.39,19.78,2.2,29.65c0-0.08,0-0.15-0.01-0.23c0.32,3.55,0.57,7.09,0.83,10.64c-1.27-1.61-2.56-3.2-3.86-4.78
			c-3.58-4.47-8.02-8.21-11.36-12.88c-2.86-4.45-4.43-9.66-7.63-13.87c0.02,0.02,0.04,0.05,0.06,0.07c-0.1-0.14-0.2-0.28-0.31-0.42
			c0.01,0.01,0.01,0.02,0.02,0.03c-0.02-0.02-0.03-0.05-0.05-0.07c0,0,0,0,0.01,0.01c-0.21-0.28-0.37-0.75-0.79-0.59
			c-0.34,0.22-0.14,0.63-0.05,0.95c1.34,10.68,3.03,21.35,4.87,31.99L338.91,395.43z M450.29,514.22
			c2.01,11.45,3.33,23.02,5.19,34.49c-8.88-17.7-16.96-35.81-24.75-54.05L450.29,514.22z M425.29,481.81
			c-4.26-10.12-8.46-20.25-12.7-30.35c14.03,15.72,28.63,32.55,35.24,52.89L425.29,481.81z M412.84,468.78
			c-0.02-0.32-0.04-0.64-0.06-0.96c-0.41-5.51-1.77-10.93-2.59-16.4c2.96,8.65,6.48,17.06,10.13,25.42l-7.34-7.34
			C412.93,469.26,412.89,469.02,412.84,468.78z M466.68,576.57c0.04,0.02,0.07,0.03,0.11,0.05c-0.56-0.23-1.12-0.46-1.67-0.69
			c-12.53-7.4-24.21-17.36-32.79-29.22c-13.19-20.29-14.03-44.8-17.72-68.18l11.58,11.58c2.69,6.11,5.35,12.24,7.79,18.46
			c10.1,25.3,20.98,50.87,40.55,70.42c0.23,0.21,0.47,0.41,0.7,0.62C472.35,578.66,469.54,577.55,466.68,576.57z M462.6,559.5
			c3.8,3.23,7.58,6.65,9.7,11.25c0.24,0.62,0.47,1.25,0.7,1.87C469.6,568.2,466.07,563.88,462.6,559.5z M480.78,579.9
			c-3.59-3.83-5.17-8.95-8.27-13.11c-2.97-3.35-6.73-5.93-9.44-9.54c0,0.01,0.01,0.01,0.01,0.02c-2.2-2.93-3.32-6.67-4.25-10.06
			c-2.14-9.58-3.05-19.4-4.63-29.08l9.79,9.79c9.87,24.41,22.97,47.62,37.88,69.14C494.92,591.24,486.96,586.66,480.78,579.9z
			 M474.66,544.22c-1.05-2.63-2.89-6.34-4.86-10.49l46.82,46.82c2.97,17.98,5.63,35.44,18.59,52.27
			C510.1,607.01,490.74,576.28,474.66,544.22z M572.64,666.32c0.07,0.05,0.15,0.11,0.22,0.16c-0.1-0.07-0.2-0.15-0.31-0.22
			c0.02,0.02,0.04,0.03,0.07,0.05c-9.81-7.64-20.61-15.2-27.47-25.67c0.03,0.05,0.06,0.1,0.1,0.15
			c-7.78-11.55-15.93-23.11-20.02-36.57c0,0.01,0.01,0.03,0.01,0.04c-0.04-0.11-0.07-0.23-0.11-0.34c0.01,0.04,0.03,0.09,0.04,0.13
			c-0.06-0.19-0.12-0.38-0.19-0.57c0.04,0.12,0.08,0.23,0.12,0.35c-0.83-2.57-1.58-5.17-2.22-7.79c0,0.03,0,0.05,0.01,0.08
			c-0.01-0.15-0.03-0.31-0.05-0.46c0.01,0.07,0.01,0.13,0.02,0.2c-0.02-0.26-0.05-0.52-0.07-0.78c0,0.01,0,0.02,0,0.03
			c0-0.05-0.01-0.1-0.02-0.15c-0.52-2.93-0.55-5.73-0.22-8.45L644.87,708.8C619.06,697.79,595.58,682.36,572.64,666.32z
			 M704.8,761.32L523.89,580.41c2.01-6.48,5.66-12.53,8.92-18.61c9.97-18.71,0.38-37.41-5.59-55.72c0,0.01,0.01,0.02,0.01,0.04
			c-0.02-0.06-0.05-0.12-0.07-0.19c0,0,0,0.01,0,0.01c-0.02-0.06-0.05-0.13-0.07-0.19c-3.97-10.49-9.6-20.28-14.3-30.42
			c-3.19-8.41-4.1-16.32-4.07-1.03c-0.01-0.03-0.01-0.07-0.01-0.09c0.28,11.83-5.06,22.83-5.72,34.56
			c-0.45,7.39,1.66,14.54,3.31,21.66c0.97,6.93,1.05,14.05,3.61,20.68c-0.02-0.06-0.04-0.12-0.06-0.18
			c0.01,0.04,0.03,0.09,0.04,0.13c0.04,0.11,0.07,0.22,0.1,0.33c-0.01-0.02-0.01-0.04-0.02-0.06c0.03,0.11,0.07,0.21,0.1,0.32
			c-0.01-0.03-0.02-0.05-0.03-0.08c2.28,6.74,3.78,13.41,5,20.02l-50.76-50.76c-2.24-6.35-3.33-12.27-1.2-15.77
			c-0.04,0.07-0.07,0.14-0.11,0.21c0.07-0.13,0.14-0.26,0.2-0.39c-0.03,0.05-0.05,0.11-0.08,0.16c0.32-0.61,0.65-1.21,0.97-1.82
			c-0.07,0.13-0.14,0.26-0.2,0.4c2.03-3.46,3.85-7.09,6.32-10.27c5.94-6.22,9.92-13.75,14.28-21.06c-0.03,0.05-0.05,0.1-0.08,0.15
			c0.02-0.05,0.05-0.09,0.07-0.14c0,0.01-0.01,0.01-0.01,0.02c0.05-0.09,0.09-0.18,0.14-0.27c0,0,0,0,0,0.01
			c18.49-33.95-4.84-54.11-1.19-85.74c-0.35-3.9-4.25,4.89-4.97,5.96c-7.92,18.36-13.81,36.46-11.63,56.74
			c1.25,18.33-4.2,35.74-7.82,53.44c-7.31-23.39-12.03-47.6-7.86-72.04c0,0.01,0,0.02-0.01,0.03c0.05-0.23,0.1-0.45,0.15-0.68
			c4.88-14.53-0.82-29.11-0.4-43.84c0.51-9.69,3.6-18.93,7.12-27.88c3.47-5.2,7.15-10.67,8.17-16.9c0-0.03,0-0.06,0-0.09
			c0,0.01,0,0.01,0,0.02c0.04-0.33,0.05-0.67,0.06-1.01c0,0.01,0,0.01,0,0.02c0.01-0.14,0.01-0.29,0.01-0.43c0,0.02,0,0.04,0,0.06
			c0.03-7.38-1.45,0.47-2.74,2.23c0.02-0.03,0.05-0.07,0.07-0.1c-0.17,0.25-0.35,0.51-0.51,0.76c0.02-0.04,0.05-0.08,0.07-0.11
			c-0.51,0.72-0.87,1.55-1.52,2.16c0.04-0.05,0.09-0.1,0.14-0.16c-0.25,0.29-0.51,0.57-0.77,0.86c0.02-0.02,0.04-0.04,0.06-0.07
			c-1.71,1.9-3.64,3.59-5.24,5.59c0.05-0.05,0.09-0.1,0.14-0.16c-1.3,1.5-2.53,3.07-3.86,4.54c0.01-0.01,0.02-0.03,0.04-0.04
			c-19.7,18.79-19.57,54.21-11.64,78.61c0.5,1.5,1.01,3,1.5,4.51c1.65,4.98,2.98,10.08,3.68,15.28c0-0.05,0-0.1-0.01-0.16
			c0,0.09,0.01,0.17,0.01,0.26c1.82,21.33,6.68,42.17,13.81,62.28l-7.04-7.04c-0.28-1.2-0.57-2.4-0.89-3.59
			c0.01,0.03,0.02,0.06,0.03,0.09c-0.04-0.13-0.09-0.27-0.13-0.4c0,0.02,0.01,0.03,0.02,0.05c-4.61-12.88-11.68-24.59-19.84-35.5
			c1.11-3-0.5-6.93-0.03-10.23c-2.45-23.6-0.37-47.25,2.38-70.73c-0.01,0.07-0.02,0.15-0.03,0.22c0.01-0.1,0.03-0.2,0.04-0.31
			c0,0.02-0.01,0.04-0.01,0.07c1.7-10,2.95-20.68,7.83-29.66c-0.02,0.04-0.04,0.08-0.07,0.13c5.29-10.05,10.44-20.38,18.54-28.52
			c-0.01,0.01-0.02,0.02-0.02,0.02c0.07-0.07,0.13-0.14,0.2-0.21c-0.03,0.03-0.05,0.05-0.08,0.08c0.11-0.12,0.22-0.23,0.33-0.35
			c-0.07,0.07-0.14,0.15-0.21,0.22c1.53-1.59,3.1-3.14,4.74-4.6c-0.02,0.01-0.03,0.02-0.05,0.03c0.11-0.07,0.21-0.14,0.32-0.21
			c-0.04,0.03-0.09,0.06-0.13,0.09c0.18-0.12,0.35-0.24,0.53-0.35c-0.01,0-0.01,0.01-0.02,0.01c0.03-0.02,0.07-0.05,0.1-0.07
			c8.1-6.42,18.07-5.59,27.68-5.6c17.29-0.07,27.02-14.18,37.87-25.55c-0.01,0.01-0.01,0.02-0.02,0.03
			c0.04-0.04,0.07-0.08,0.11-0.12c0,0,0,0-0.01,0.01c0.04-0.04,0.07-0.08,0.11-0.13c6-6.91,10.86-14.73,16.33-22.03
			c4.81-5.54,10.14-9.25-0.83-3.32c0.02-0.02,0.04-0.03,0.06-0.04c-8.39,4.78-18.36,5.19-27.04,9.25
			c-5.49,2.53-9.8,6.82-14.28,10.75c-4.6,3.38-9.69,6.18-13.46,10.59c0.04-0.04,0.07-0.08,0.11-0.11c-0.03,0.03-0.05,0.05-0.08,0.08
			c-0.07,0.07-0.13,0.13-0.2,0.2c0.01-0.01,0.02-0.02,0.03-0.03c-0.06,0.07-0.13,0.13-0.19,0.2c0.02-0.02,0.03-0.03,0.05-0.05
			c-16.64,17.84-37.82,25.28-48.65,49.47c8.83-28.01,23.43-53.8,40.25-77.74c5.09-6.08,15.77-23.86,23.67-23.45
			c-0.06,0-0.13,0-0.19,0c0.12,0,0.24,0,0.36-0.01c-0.05,0-0.1,0-0.15,0.01c0.56,0,1.12,0,1.68-0.01c-0.12,0-0.24,0-0.37,0.01
			c3.27,0.12,6.58,0.03,9.82,0.57c6.77,1.86,13.71,1.81,20.65,2.12c-0.05,0-0.09,0-0.14,0c0.04,0,0.08,0,0.12,0
			c-0.01,0-0.01,0-0.02,0c0.08,0,0.16,0,0.25,0c0,0,0,0,0,0c31.54,0.16,37-24.39,61.14-33.99c2.66-1.76-5.16-1.16-6.2-1.27
			c-16.25,1.41-31.53,4.17-45.26,13.58c-12.69,7.99-27.3,10.79-41.42,15.03c13.98-14.29,29.55-27.04,48.72-33.5
			c-0.01,0-0.01,0-0.02,0.01c0.18-0.05,0.36-0.1,0.55-0.15c12.33-2.11,20.59-11.84,31.34-17.23c7.16-3.38,14.99-4.73,22.78-5.66
			c5.07,0.48,10.43,1.01,15.3-0.66c0.02-0.01,0.05-0.02,0.07-0.03c0,0-0.01,0.01-0.01,0.01c0.25-0.1,0.5-0.22,0.75-0.34
			c-0.01,0-0.01,0-0.02,0.01c0.11-0.05,0.21-0.11,0.31-0.16c-0.02,0.01-0.03,0.01-0.05,0.02c5.32-2.83-0.9-0.86-2.66-1.11
			c0.03,0,0.07,0.01,0.1,0.01c-0.25-0.02-0.5-0.05-0.75-0.07c0.03,0,0.07,0.01,0.11,0.01c-0.71-0.09-1.45-0.03-2.14-0.26
			c0.05,0.01,0.11,0.02,0.17,0.04c-0.31-0.07-0.61-0.14-0.91-0.22c0.02,0.01,0.05,0.01,0.07,0.02c-2.03-0.49-3.98-1.23-6.04-1.6
			c0.06,0.01,0.11,0.03,0.17,0.04c-1.58-0.35-3.18-0.63-4.76-1.02c0.01,0,0.03,0.01,0.05,0.01c-21.12-6.89-46.51,6.9-60.98,22.02
			c-0.88,0.94-1.76,1.89-2.66,2.82c-2.94,3.11-6.09,6.04-9.55,8.55c0.04-0.02,0.07-0.04,0.11-0.06c-0.06,0.04-0.12,0.07-0.18,0.11
			c-35.55,23.22-62.12,58.26-81.26,95.81c1.49-7.25,1.71-14.74,4.18-21.79c1.36-4.06,4.43-7.17,6.22-11.01
			c1.26-3.43,1.66-7.13,3.2-10.46c0,0.01-0.01,0.01-0.01,0.02c1.26-2.72,3.51-4.97,5.59-6.94c8.74-7.57,18.84-13.47,27.25-21.43
			c-0.02,0.02-0.04,0.04-0.06,0.06c0.08-0.08,0.16-0.16,0.24-0.25c-0.01,0.01-0.02,0.02-0.03,0.03
			c6.39-7.09,11.47-15.14,15.73-23.62L704.8,29.55l185.5,185.5c4.33,8.7,9.5,16.96,16.04,24.22c-0.01-0.01-0.02-0.02-0.03-0.03
			c0.08,0.08,0.16,0.16,0.24,0.25c-0.02-0.02-0.04-0.04-0.06-0.06c8.41,7.96,18.51,13.86,27.25,21.43c2.08,1.97,4.33,4.23,5.59,6.94
			c0-0.01-0.01-0.01-0.01-0.02c1.54,3.34,1.95,7.04,3.2,10.46c1.79,3.84,4.86,6.95,6.22,11.01c2.46,7.05,2.69,14.54,4.18,21.79
			c-19.14-37.55-45.71-72.58-81.26-95.81c-0.06-0.04-0.12-0.07-0.18-0.11c0.04,0.02,0.07,0.04,0.11,0.06
			c-3.47-2.51-6.62-5.45-9.55-8.55c-0.89-0.93-1.77-1.88-2.66-2.82c-14.47-15.13-39.86-28.91-60.98-22.02
			c0.02,0,0.03-0.01,0.05-0.01c-1.57,0.39-3.18,0.67-4.76,1.02c0.06-0.01,0.11-0.03,0.17-0.04c-2.05,0.37-4.01,1.11-6.04,1.6
			c0.02-0.01,0.05-0.01,0.07-0.02c-0.3,0.08-0.61,0.15-0.91,0.22c0.06-0.01,0.11-0.03,0.17-0.04c-0.69,0.23-1.43,0.17-2.14,0.26
			c0.03,0,0.07,0,0.11-0.01c-0.25,0.02-0.5,0.05-0.75,0.07c0.03,0,0.07-0.01,0.1-0.01c-1.77,0.25-7.98-1.73-2.66,1.11
			c-0.02-0.01-0.03-0.01-0.05-0.02c0.1,0.05,0.21,0.11,0.31,0.16c-0.01,0-0.01,0-0.02-0.01c0.24,0.12,0.49,0.24,0.75,0.34
			c0,0-0.01,0-0.01-0.01c0.02,0.01,0.05,0.02,0.07,0.03c4.87,1.67,10.23,1.15,15.3,0.66c7.79,0.93,15.62,2.28,22.78,5.66
			c10.75,5.39,19.01,15.12,31.34,17.23c0.18,0.05,0.37,0.1,0.55,0.15c-0.01,0-0.01,0-0.02-0.01c19.17,6.46,34.74,19.2,48.72,33.5
			c-14.12-4.24-28.73-7.05-41.42-15.03c-13.73-9.4-29.01-12.17-45.26-13.58c-1.04,0.11-8.87-0.49-6.2,1.27
			c24.14,9.6,29.6,34.15,61.14,33.99c0,0,0,0,0,0c0.08,0,0.17,0,0.25,0c-0.01,0-0.01,0-0.02,0c0.04,0,0.08,0,0.12,0
			c-0.05,0-0.09,0-0.14,0c6.94-0.31,13.89-0.26,20.65-2.12c3.24-0.54,6.54-0.45,9.82-0.57c-0.12-0.01-0.24,0-0.36-0.01
			c0.56,0.01,1.12,0,1.68,0.01c-0.05,0-0.1,0-0.15-0.01c0.12,0,0.24,0.01,0.36,0.01c-0.06,0-0.13,0-0.19,0
			c7.91-0.41,18.58,17.37,23.67,23.45c16.82,23.95,31.42,49.74,40.25,77.74c-10.83-24.19-32.01-31.62-48.65-49.47
			c0.02,0.02,0.03,0.03,0.05,0.05c-0.06-0.07-0.13-0.13-0.19-0.2c0.01,0.01,0.02,0.02,0.03,0.03c-0.07-0.07-0.13-0.13-0.2-0.2
			c-0.03-0.03-0.05-0.05-0.08-0.08c0.04,0.04,0.07,0.07,0.11,0.11c-3.77-4.4-8.86-7.21-13.46-10.59
			c-4.48-3.93-8.79-8.21-14.28-10.75c-8.68-4.05-18.65-4.47-27.04-9.25c0.02,0.01,0.04,0.03,0.06,0.04
			c-10.97-5.93-5.64-2.22-0.83,3.32c5.47,7.3,10.33,15.13,16.33,22.03c0.04,0.04,0.07,0.08,0.11,0.13c0,0,0-0.01-0.01-0.01
			c0.04,0.04,0.07,0.08,0.11,0.12c-0.01-0.01-0.01-0.02-0.02-0.03c10.85,11.37,20.58,25.48,37.87,25.55
			c9.61,0.01,19.59-0.82,27.68,5.6c0.03,0.02,0.07,0.05,0.1,0.07c-0.01,0-0.01-0.01-0.02-0.01c0.18,0.12,0.35,0.24,0.53,0.35
			c-0.04-0.03-0.09-0.06-0.13-0.09c0.1,0.07,0.21,0.14,0.32,0.21c-0.02-0.01-0.04-0.02-0.05-0.03c1.64,1.47,3.21,3.02,4.74,4.6
			c-0.07-0.07-0.14-0.15-0.21-0.22c0.11,0.12,0.22,0.24,0.33,0.35c-0.03-0.03-0.05-0.05-0.08-0.08c0.07,0.07,0.13,0.14,0.2,0.21
			c-0.01-0.01-0.02-0.02-0.02-0.02c8.09,8.14,13.25,18.47,18.54,28.52c-0.02-0.04-0.04-0.08-0.07-0.13
			c4.88,8.98,6.13,19.65,7.83,29.66c0-0.02-0.01-0.04-0.01-0.07c0.01,0.1,0.03,0.2,0.04,0.31c-0.01-0.07-0.02-0.15-0.03-0.22
			c2.75,23.48,4.83,47.13,2.38,70.73c0.47,3.29-1.14,7.22-0.03,10.23c-8.16,10.9-15.23,22.61-19.84,35.5
			c0.01-0.02,0.01-0.03,0.02-0.05c-0.04,0.13-0.09,0.27-0.13,0.4c0.01-0.03,0.02-0.06,0.03-0.09c-0.36,1.32-0.68,2.65-0.98,3.98
			l-7.12,7.12c7.22-20.25,12.15-41.25,13.98-62.75c0-0.09,0.01-0.17,0.01-0.26c0,0.05,0,0.1-0.01,0.16c0.7-5.2,2.04-10.3,3.68-15.28
			c0.49-1.51,1-3.01,1.5-4.51c7.93-24.4,8.06-59.82-11.64-78.61c0.01,0.01,0.02,0.03,0.04,0.04c-1.33-1.47-2.57-3.04-3.86-4.54
			c0.05,0.05,0.09,0.1,0.14,0.16c-1.6-2-3.53-3.68-5.24-5.59c0.02,0.02,0.04,0.04,0.06,0.07c-0.27-0.28-0.52-0.57-0.77-0.86
			c0.05,0.05,0.09,0.11,0.14,0.16c-0.65-0.62-1.02-1.44-1.52-2.16c0.02,0.04,0.05,0.08,0.07,0.11c-0.16-0.26-0.34-0.51-0.51-0.76
			c0.02,0.03,0.05,0.07,0.07,0.1c-1.29-1.77-2.77-9.62-2.74-2.23c0-0.02,0-0.04,0-0.06c0,0.14,0,0.29,0.01,0.43
			c0-0.01,0-0.01,0-0.02c0.01,0.34,0.03,0.67,0.06,1.01c0-0.01,0-0.01,0-0.02c0,0.03,0,0.06,0,0.09c1.02,6.23,4.7,11.71,8.17,16.9
			c3.52,8.95,6.61,18.19,7.12,27.88c0.43,14.73-5.28,29.3-0.4,43.84c0.05,0.23,0.1,0.45,0.15,0.68c0-0.01,0-0.02-0.01-0.03
			c4.16,24.44-0.55,48.65-7.86,72.04c-3.62-17.7-9.08-35.11-7.82-53.44c2.18-20.28-3.71-38.38-11.63-56.74
			c-0.72-1.06-4.62-9.85-4.97-5.96c3.66,31.63-19.68,51.79-1.19,85.74c0,0,0,0,0-0.01c0.05,0.09,0.09,0.18,0.14,0.27
			c0-0.01-0.01-0.01-0.01-0.02c0.02,0.04,0.05,0.09,0.07,0.14c-0.03-0.05-0.05-0.1-0.08-0.15c4.36,7.31,8.34,14.84,14.28,21.06
			c2.46,3.18,4.29,6.8,6.32,10.27c-0.06-0.13-0.13-0.26-0.2-0.4c0.32,0.61,0.65,1.21,0.97,1.82c-0.03-0.05-0.05-0.11-0.08-0.16
			c0.06,0.13,0.13,0.26,0.2,0.39c-0.04-0.07-0.07-0.14-0.11-0.21c2.18,3.59,0.98,9.71-1.37,16.24l-50.67,50.67
			c1.24-6.73,2.75-13.52,5.07-20.39c-0.01,0.03-0.02,0.05-0.03,0.08c0.04-0.11,0.07-0.21,0.1-0.32c-0.01,0.02-0.01,0.04-0.02,0.06
			c0.03-0.11,0.07-0.22,0.1-0.33c0.01-0.04,0.03-0.09,0.04-0.13c-0.02,0.06-0.04,0.12-0.06,0.18c2.56-6.62,2.64-13.75,3.61-20.68
			c1.64-7.12,3.76-14.26,3.31-21.66c-0.66-11.73-6.01-22.73-5.72-34.56c0,0.03-0.01,0.06-0.01,0.09c0.03-15.29-0.88-7.38-4.07,1.03
			c-4.7,10.14-10.33,19.93-14.3,30.42c-0.02,0.06-0.05,0.13-0.07,0.19c0,0,0-0.01,0-0.01c-0.02,0.06-0.05,0.12-0.07,0.19
			c0.01-0.01,0.01-0.02,0.01-0.04c-5.98,18.31-15.56,37.01-5.59,55.72c3.3,6.15,7,12.27,9,18.84L704.8,761.32z M515.49,486.03
			c0.01,0.03,0.02,0.05,0.03,0.08c0,0.01,0,0.01,0.01,0.02C515.51,486.09,515.5,486.06,515.49,486.03z M468.42,490.03
			c-0.08,0.09-0.16,0.18-0.24,0.27c-0.03,0.04-0.07,0.07-0.1,0.11c0.02-0.02,0.03-0.03,0.05-0.05c0,0-0.01,0.01-0.01,0.01
			C468.22,490.26,468.32,490.14,468.42,490.03z M466.95,491.65c-0.07,0.09-0.13,0.19-0.2,0.28c7.39-17.97,13.8-36.61,10.07-56.33
			c0,0.02,0,0.04,0.01,0.07c-1.78-8.52,1.02-16.68,2.46-25.01c-0.01,0.04-0.01,0.07-0.02,0.11c0.15-0.89,0.3-1.79,0.44-2.69
			c-0.01,0.08-0.03,0.17-0.04,0.25c0.31-1.85,0.84-3.64,1.17-5.49c1.28,6.46,1.92,13.09,3.76,19.42
			C494.75,446.55,483.83,473.32,466.95,491.65z M474.34,436.08c2.95,19.99-3.89,38.98-11.08,57.26c6.83-20.71,6.18-42.4,6.31-63.94
			c0.77-11.79,7.05-22.17,10.33-33.32C479.45,409.47,471.74,422.39,474.34,436.08z M493.23,301.27c0.06-0.06,0.11-0.12,0.17-0.17
			c3.99-4.81,9.49-7.76,14.4-11.45c6.98-7.05,15.5-11.93,25.27-13.88c0.06-0.01,0.11-0.03,0.17-0.05c-0.02,0.01-0.05,0.01-0.07,0.02
			c2.81-0.77,5.75-1.2,8.44-2.37c-5.84,4.88-12.15,9.09-18.69,12.96c0.08-0.05,0.17-0.1,0.25-0.15
			c-8.78,5.51-18.08,10.14-27.16,15.13c-1.96,1.09-3.91,2.19-5.87,3.27c0.03-0.03,0.06-0.06,0.09-0.09c-0.03,0.03-0.06,0.07-0.1,0.1
			c1.08-1.12,2.12-2.28,3.2-3.41C493.29,301.21,493.26,301.24,493.23,301.27z M545.57,272.53c-1.36,2-2.89,3.89-4.46,5.73
			c0,0,0,0.01-0.01,0.01c0.01-0.01,0.02-0.02,0.03-0.04c-0.01,0.01-0.02,0.03-0.03,0.04c-7.11,9.32-14.45,18.49-23.35,26.2
			c-3.99,4.05-7.87,8.4-13.46,10.22c-9.02,3.62-18.5,0.79-27.65,2.52c-0.37,0.08-0.73,0.2-1.09,0.31
			C497.99,301.09,524.61,291.13,545.57,272.53z M541.41,277.91c-0.01,0.02-0.03,0.03-0.04,0.05c0,0-0.01,0.01-0.01,0.01
			C541.37,277.95,541.39,277.93,541.41,277.91z M520.34,245.64c-0.1-0.02-0.19-0.05-0.29-0.07c-0.04-0.01-0.08-0.02-0.12-0.03
			c0.02,0,0.04,0.01,0.06,0.01c0,0-0.01,0-0.01,0C520.1,245.58,520.22,245.61,520.34,245.64z M608.19,183.66
			c0.83,0.22,1.66,0.42,2.5,0.61c-0.03-0.01-0.07-0.02-0.1-0.03c2.58,0.6,5.23,0.86,7.77,1.6c-2.96-0.5-5.89-1.22-8.92-0.97
			c0.01,0,0.03,0,0.04,0c-0.07,0-0.13,0-0.2,0c0.04,0,0.07,0,0.11,0c-1.51,0-3.02-0.1-4.54-0.06c0.01,0,0.02,0,0.04,0
			c-0.07,0-0.14,0-0.2,0c0.02,0,0.03,0,0.05,0c-1.16,0.01-2.32,0.01-3.47,0.03c0.07,0,0.14,0,0.21,0c-0.32,0-0.63,0.01-0.95,0.01
			c0.02,0,0.04,0,0.06,0c-0.06,0-0.12,0-0.18,0c0.03,0,0.06,0,0.09,0c-6.17-0.06-11.97,2.24-17.92,3.56
			c-0.08,0.02-0.17,0.05-0.25,0.07c0.03-0.01,0.05-0.02,0.08-0.02c-0.86,0.23-1.72,0.45-2.57,0.7c0.01,0,0.02,0,0.02-0.01
			c-8.83,2.29-16.11,8.16-23.43,13.34c-2.55,1.86-4.87,4.02-7.56,5.68c5.11-5.16,10.22-10.52,16.5-14.26
			c13.13-7.12,27.52-14.81,42.83-10.26c0.01,0,0.02,0,0.02,0.01C608.2,183.66,608.2,183.66,608.19,183.66z M572.3,194.7
			c-0.09,0.06-0.18,0.11-0.28,0.17c3.03-1.74,6.32-2.95,9.67-3.93c7.04-1.85,13.88-4.84,21.29-4.51
			c-13.85,1.27-24.42,10.35-35.37,17.89c-6.06,3.21-13.07,4.06-19.16,7.26c-0.21,0.07-0.42,0.14-0.63,0.21
			C556.13,206.34,563.61,199.65,572.3,194.7z M804.61,184.82c-0.07,0-0.14,0-0.2,0c0.01,0,0.02,0,0.04,0
			c-1.51-0.04-3.02,0.06-4.54,0.06c0.04,0,0.07,0,0.11,0c-0.07,0-0.13,0-0.2,0c0.01,0,0.03,0,0.04,0c-3.03-0.25-5.96,0.47-8.92,0.97
			c2.54-0.74,5.19-1.01,7.77-1.6c-0.03,0.01-0.07,0.02-0.1,0.03c0.84-0.19,1.67-0.38,2.5-0.61c0,0-0.01,0-0.01,0
			c0.01,0,0.02,0,0.02-0.01c15.3-4.55,29.69,3.14,42.83,10.26c6.28,3.74,11.39,9.1,16.5,14.26c-2.69-1.66-5.01-3.83-7.56-5.68
			c-7.32-5.18-14.6-11.05-23.43-13.34c0.01,0,0.02,0,0.02,0.01c-0.85-0.24-1.72-0.46-2.57-0.7c0.03,0.01,0.05,0.02,0.08,0.02
			c-0.08-0.02-0.17-0.05-0.25-0.07c-5.95-1.31-11.75-3.62-17.92-3.56c0.03,0,0.06,0,0.09,0c-0.06,0-0.12,0-0.18,0
			c0.02,0,0.04,0,0.06,0c-0.32,0-0.63-0.01-0.95-0.01c0.07,0,0.14,0,0.21,0c-1.16-0.02-2.31-0.02-3.47-0.03
			C804.57,184.82,804.59,184.82,804.61,184.82z M827.6,190.94c3.34,0.98,6.64,2.18,9.67,3.93c-0.09-0.06-0.18-0.11-0.28-0.17
			c8.69,4.95,16.17,11.63,24.49,17.1c-0.21-0.07-0.42-0.14-0.63-0.21c-6.09-3.19-13.1-4.05-19.16-7.26
			c-10.96-7.54-21.53-16.62-35.37-17.89C813.73,186.1,820.56,189.09,827.6,190.94z M889.3,245.55c0.02,0,0.04-0.01,0.06-0.01
			c-0.04,0.01-0.08,0.02-0.12,0.03c-0.1,0.02-0.19,0.05-0.29,0.07c0.12-0.03,0.24-0.06,0.36-0.09
			C889.31,245.55,889.3,245.55,889.3,245.55z M868.18,278.25c-1.57-1.84-3.1-3.73-4.46-5.73c20.96,18.6,47.58,28.56,70.01,44.99
			c-0.36-0.11-0.72-0.23-1.09-0.31c-9.15-1.73-18.63,1.1-27.65-2.52c-5.58-1.82-9.47-6.17-13.46-10.22
			c-8.9-7.71-16.24-16.88-23.35-26.2c-0.01-0.01-0.02-0.03-0.03-0.04C868.17,278.24,868.18,278.25,868.18,278.25
			C868.19,278.26,868.18,278.26,868.18,278.25z M867.94,277.97c0,0-0.01-0.01-0.01-0.01c-0.01-0.02-0.03-0.03-0.04-0.05
			C867.9,277.93,867.92,277.95,867.94,277.97z M876.06,275.72c0.05,0.02,0.11,0.03,0.17,0.05c9.77,1.94,18.29,6.83,25.27,13.88
			c4.91,3.69,10.41,6.65,14.4,11.45c0.06,0.06,0.11,0.12,0.17,0.17c-0.03-0.03-0.06-0.06-0.09-0.09c1.07,1.13,2.12,2.29,3.2,3.41
			c-0.04-0.03-0.06-0.07-0.1-0.1c0.03,0.03,0.06,0.06,0.09,0.09c-1.97-1.08-3.91-2.18-5.87-3.27c-9.08-4.99-18.38-9.62-27.16-15.13
			c0.08,0.05,0.17,0.1,0.25,0.15c-6.54-3.88-12.85-8.08-18.69-12.96c2.68,1.16,5.63,1.6,8.44,2.37
			C876.1,275.73,876.08,275.73,876.06,275.72z M941.17,490.36c0.02,0.02,0.03,0.03,0.05,0.05c-0.03-0.04-0.07-0.07-0.1-0.11
			c-0.08-0.09-0.16-0.18-0.24-0.27C940.97,490.14,941.07,490.26,941.17,490.36C941.17,490.37,941.17,490.36,941.17,490.36z
			 M924.69,422.26c1.84-6.34,2.48-12.96,3.76-19.42c0.33,1.85,0.86,3.64,1.17,5.49c-0.01-0.08-0.03-0.17-0.04-0.25
			c0.14,0.9,0.29,1.79,0.44,2.69c-0.01-0.04-0.01-0.08-0.02-0.11c1.44,8.32,4.24,16.48,2.46,25.01c0-0.02,0-0.04,0.01-0.07
			c-3.73,19.71,2.68,38.36,10.07,56.33c-0.07-0.09-0.13-0.19-0.2-0.28C925.47,473.32,914.54,446.55,924.69,422.26z M934.95,436.08
			c2.6-13.69-5.11-26.61-5.57-39.99c3.29,11.15,9.57,21.52,10.33,33.32c0.13,21.54-0.52,43.24,6.31,63.94
			C938.84,475.06,932,456.07,934.95,436.08z M893.77,486.12c0-0.01,0-0.01,0.01-0.02c0.01-0.03,0.02-0.05,0.03-0.08
			C893.79,486.06,893.78,486.09,893.77,486.12z M836.67,666.3c0.02-0.02,0.04-0.03,0.07-0.05c-0.1,0.07-0.2,0.15-0.31,0.22
			c0.07-0.05,0.15-0.11,0.22-0.16c-22.79,15.93-46.1,31.27-71.71,42.26l121.82-121.82c0.3,2.63,0.25,5.35-0.25,8.19
			c-0.01,0.05-0.01,0.1-0.02,0.15c0-0.01,0-0.02,0-0.03c-0.03,0.26-0.05,0.52-0.08,0.78c0.01-0.07,0.01-0.13,0.02-0.2
			c-0.02,0.15-0.03,0.31-0.05,0.46c0-0.03,0-0.05,0.01-0.08c-0.63,2.62-1.39,5.22-2.21,7.79c0.04-0.12,0.08-0.24,0.12-0.35
			c-0.06,0.19-0.12,0.38-0.19,0.57c0.01-0.04,0.03-0.09,0.04-0.13c-0.04,0.11-0.07,0.23-0.11,0.34c0-0.01,0.01-0.03,0.01-0.04
			c-4.09,13.47-12.25,25.03-20.02,36.57c0.03-0.05,0.07-0.1,0.1-0.15C857.28,651.11,846.48,658.66,836.67,666.3z M874.09,632.81
			c12.88-16.73,15.59-34.06,18.53-51.91l46.61-46.61c-1.86,3.92-3.59,7.42-4.59,9.93C918.55,576.28,899.19,607.01,874.09,632.81z"/>
	</g>
	<g>
		<g>
			<linearGradient id="SVGID_2_" gradientUnits="userSpaceOnUse" x1="682.6742" y1="254.3961" x2="726.9179" y2="254.3961">
				<stop  offset="0" style="stop-color:#BB7F85"/>
				<stop  offset="0.1093" style="stop-color:#DD9B9C"/>
				<stop  offset="0.1975" style="stop-color:#F4AEAC"/>
				<stop  offset="0.295" style="stop-color:#F6C7C6"/>
				<stop  offset="0.3858" style="stop-color:#F8DADA"/>
				<stop  offset="0.7116" style="stop-color:#B27780"/>
				<stop  offset="0.8452" style="stop-color:#D7A0A7"/>
				<stop  offset="1" style="stop-color:#FFCBD1"/>
			</linearGradient>
			<rect x="682.67" y="252.43" class="st1" width="44.24" height="3.93"/>
			<linearGradient id="SVGID_3_" gradientUnits="userSpaceOnUse" x1="682.6742" y1="583.5518" x2="726.9179" y2="583.5518">
				<stop  offset="0" style="stop-color:#BB7F85"/>
				<stop  offset="0.1093" style="stop-color:#DD9B9C"/>
				<stop  offset="0.1975" style="stop-color:#F4AEAC"/>
				<stop  offset="0.295" style="stop-color:#F6C7C6"/>
				<stop  offset="0.3858" style="stop-color:#F8DADA"/>
				<stop  offset="0.7116" style="stop-color:#B27780"/>
				<stop  offset="0.8452" style="stop-color:#D7A0A7"/>
				<stop  offset="1" style="stop-color:#FFCBD1"/>
			</linearGradient>
			<rect x="682.67" y="581.59" class="st2" width="44.24" height="3.93"/>
			<g>
				<linearGradient id="SVGID_4_" gradientUnits="userSpaceOnUse" x1="544.2354" y1="398.8374" x2="849.9619" y2="398.8374">
					<stop  offset="0" style="stop-color:#BB7F85"/>
					<stop  offset="0.1093" style="stop-color:#DD9B9C"/>
					<stop  offset="0.1975" style="stop-color:#F4AEAC"/>
					<stop  offset="0.295" style="stop-color:#F6C7C6"/>
					<stop  offset="0.3858" style="stop-color:#F8DADA"/>
					<stop  offset="0.7116" style="stop-color:#B27780"/>
					<stop  offset="0.8452" style="stop-color:#D7A0A7"/>
					<stop  offset="1" style="stop-color:#FFCBD1"/>
				</linearGradient>
				<path class="st3" d="M847.89,319.14c0,3.71-1.76,5.87-5.29,6.46c-2.61,0-3.91-1.26-3.91-3.78c0-1.04,0.42-2.04,1.26-3.01
					c0.84-0.96,1.26-1.89,1.26-2.78v-0.45c-2.45,0.15-5.21,0.82-8.28,2c-3.53,1.19-6.98,2.82-10.34,4.9
					c-2.3,1.63-4.98,3.93-8.04,6.9l-2.3,2.23c-8.13,9.05-16.25,18.11-24.37,27.16c-1.07,1.19-2.15,2.3-3.22,3.34
					c-1.38,1.19-2.76,2.45-4.14,3.79c-11.19,9.94-22.68,17.66-34.48,23.15c4.75,3.86,7.36,8.31,7.82,13.36
					c0.76,0.74,1.38,1.49,1.84,2.23c4.29,6.09,6.74,13.43,7.36,22.04l1.61,20.93c1.68,18.85,9.42,28.27,23.22,28.27
					c3.83,0,7.66-0.78,11.49-2.34c3.83-1.56,7.13-3.75,9.88-6.57c1.07-1.04,1.84-1.56,2.3-1.56c0.76,0,1.15,0.45,1.15,1.34
					c0,1.63-1.84,3.56-5.52,5.79c-2.91,1.93-6.17,3.41-9.77,4.45c-3.6,1.04-7.39,1.56-11.38,1.56c-16.25,0-27.74-6.16-34.48-18.48
					c-9.81,12.61-17.55,18.92-23.22,18.92c-7.82,0-11.72-5.94-11.72-17.81c0-9.2,3.37-18.77,10.11-28.72
					c3.52-4.45,7.97-10.16,13.33-17.14c1.53-2.08,2.76-3.63,3.68-4.67c-0.46-5.04-1.69-9.42-3.68-13.13
					c-1.38-2.67-3.07-4.67-5.06-6.01h-2.3c-2.3,0-4.14-0.22-5.52-0.67h-3.91c-5.21,11.43-10.65,21.74-16.32,30.94
					c-3.53,5.79-7.13,11.13-10.8,16.03l-0.46,0.67c-1.84,2.38-3.6,4.6-5.29,6.68c-2.61,3.12-5.02,5.79-7.24,8.01
					c-2.22,2.23-4.41,4.23-6.55,6.01c-2.15,1.78-4.37,3.42-6.67,4.9c-1.99,1.34-4.22,2.67-6.67,4.01
					c-18.39,11.43-37.16,17.14-56.32,17.14c-10.88,0-20.61-4.01-29.19-12.02c-7.36-7.12-11.95-14.92-13.79-23.38
					c-13.18-9.05-19.77-22.93-19.77-41.63c0-17.66,5.44-33.02,16.32-46.08c10.88-13.06,24.67-20.11,41.38-21.15
					c10.73-15.14,28.96-22.71,54.71-22.71c9.96,0,20.46,2,31.49,6.01c6.9-3.26,13.25-4.9,19.08-4.9c3.68,0,6.7,0.89,9.08,2.67
					c2.37,1.78,3.56,4.16,3.56,7.12c0,2.08-0.46,4.16-1.38,6.23c-0.46,0.74-1,1.63-1.61,2.67c4.75,2.97,9.27,6.09,13.56,9.35
					l10.11-8.24l2.53-2c8.58-12.61,15.25-18.92,20-18.92c1.22,0,1.84,0.67,1.84,2c0,0.74-0.31,1.71-0.92,2.89
					c2.6-1.19,4.67-1.78,6.21-1.78c1.07,0,1.61,0.52,1.61,1.56c0,0.74-0.69,1.71-2.07,2.89c-4.6,3.86-8.7,7.65-12.3,11.35
					c-3.6,3.71-7.09,7.79-10.46,12.24c-1.84,2.38-3.68,4.9-5.52,7.57c1.07,1.19,2.3,2.45,3.68,3.79c0.31,0.3,0.46,0.67,0.46,1.11
					c0,0.59-0.23,0.89-0.69,0.89c-0.46,0-0.84-0.22-1.15-0.67c-1.23-1.19-2.38-2.3-3.45-3.34c-1.07,1.93-2.22,3.93-3.45,6.01
					c-3.07,5.34-6.59,11.73-10.57,19.15c0.92-0.3,2.07-0.45,3.45-0.45c3.83,0,7.28,0.74,10.34,2.23c1.07-0.45,2.22-0.96,3.45-1.56
					c3.83-1.78,7.82-3.97,11.95-6.57c4.14-2.59,8.28-5.53,12.41-8.79c2.3-1.78,4.44-3.56,6.44-5.34c1.84-1.93,3.91-4.01,6.21-6.23
					l11.03-10.91l5.52-5.79c1.84-1.93,3.68-3.78,5.52-5.57c1.99-1.93,3.91-3.86,5.75-5.79c12.26-11.13,22.22-16.7,29.88-16.7
					c1.68,0,3.14,0.15,4.37,0.45h1.38c3.98,0,5.98,0.82,5.98,2.45c0,0.89-0.46,1.34-1.38,1.34c-0.15,0-0.54-0.07-1.15-0.22
					C847.74,317.36,847.89,318.25,847.89,319.14z M599.4,345.85c-15.02,1.93-27.58,9.05-37.7,21.37
					c-10.11,12.32-15.17,26.49-15.17,42.52c0,15.58,5.59,27.83,16.78,36.73c-0.92-4.9-1.38-8.98-1.38-12.24
					c0-13.06,3.06-25.45,9.19-37.18c6.28-12.47,15.09-22.04,26.44-28.72c-0.92-3.41-1.38-6.46-1.38-9.13
					C596.19,354.46,597.26,350.01,599.4,345.85z M574.35,436.46c0-8.16,1.95-15.95,5.86-23.38c3.91-7.42,9.16-13.95,15.75-19.59
					c3.68-3.12,7.74-5.86,12.18-8.24c-3.68-3.26-6.59-7.27-8.73-12.02c-10.57,6.53-19.08,15.33-25.52,26.38
					c-6.44,11.06-9.65,22.37-9.65,33.95c0,6.09,0.38,10.76,1.15,14.03c3.37,2.97,7.66,5.2,12.87,6.68
					c-0.15-0.15-0.31-0.37-0.46-0.67C575.5,448.41,574.35,442.69,574.35,436.46z M621.47,479.43c-6.75,0-12.99-1.08-18.73-3.23
					c-5.75-2.15-10.77-5.16-15.06-9.02c-3.22-2.97-5.9-6.31-8.05-10.02c-5.06-1.33-9.42-3.34-13.1-6.01
					c1.99,7.72,6.51,14.69,13.56,20.93c7.66,6.97,16.47,10.46,26.44,10.46c7.66,0,14.94-1.19,21.84-3.56
					C626.07,479.28,623.77,479.43,621.47,479.43z M663.31,394.16v-0.22c-6.75,1.64-13.49,2.45-20.23,2.45h-1.61
					c-4.6,14.4-13.56,23.67-26.89,27.83c-1.69,0-2.61-0.3-2.76-0.89c0-1.34,0.38-2.04,1.15-2.12c0.77-0.07,2.07-0.33,3.91-0.78
					c10.27-3.86,17.78-11.87,22.53-24.04c-10.88-0.59-19.77-3.12-26.67-7.57c-3.37,2.38-6.52,5.05-9.42,8.01
					c-5.52,5.64-9.92,12.17-13.22,19.59c-3.3,7.42-4.94,15.21-4.94,23.38c0,6.23,0.92,11.73,2.76,16.47
					c2.6,0.15,5.36,0.22,8.28,0.22c16.55-0.15,31.57-5.71,45.05-16.7C655.95,427.48,663.31,412.27,663.31,394.16z M680.32,403.07
					c0,5.2-1.26,10.35-3.79,15.47c-2.53,5.12-6.02,9.39-10.46,12.8c-1.23,0.89-2.41,1.67-3.56,2.34s-2.03,1-2.64,1
					c-0.77,0-1.15-0.45-1.15-1.34c0-0.45,0.19-0.81,0.57-1.11c0.38-0.29,1.19-0.81,2.41-1.56c4.44-2.67,8.12-6.57,11.03-11.69
					c2.91-5.12,4.37-10.28,4.37-15.47c0-4.75-1.07-8.91-3.22-12.47c-2.61,0.89-5.21,1.63-7.82,2.23v1.56c0,19-7.82,34.73-23.45,47.2
					c-14.25,11.28-29.73,16.92-46.43,16.92c-2.45,0-4.83-0.07-7.13-0.22c1.53,2.97,3.52,5.64,5.98,8.01
					c6.74,6.53,15.94,9.79,27.58,9.79c6.44,0,12.33-0.97,17.7-2.89c3.83-2.23,7.59-4.9,11.26-8.01c8.89-7.57,20.15-21.67,33.79-42.3
					c0.76-1.48,1.61-3.04,2.53-4.68l11.49-20.93c4.9-9.35,11.57-18.92,20-28.72c2.14-2.67,4.44-5.27,6.9-7.79
					c-15.94,13.36-32.34,23.01-49.19,28.94C679.24,393.87,680.32,398.17,680.32,403.07z M636.18,360.32
					c-6.29-9.8-16.25-14.69-29.88-14.69h-4.14c-2.3,4.31-3.45,8.83-3.45,13.58c0,2.82,0.38,5.42,1.15,7.79
					c8.89-4.9,19.08-7.35,30.57-7.35C632.89,359.66,634.8,359.88,636.18,360.32z M619.17,380.14c7.36-2.67,14.94-4.23,22.76-4.68
					c-0.31-3.56-1.23-7.12-2.76-10.69c-3.53-0.45-6.21-0.67-8.05-0.67c-10.27,0-20.15,2.6-29.65,7.79c2.3,4.75,5.44,8.76,9.42,12.02
					C613.5,382.59,616.26,381.33,619.17,380.14z M733.19,352.75l-2.76-2l-1.15,0.89c-3.53,2.97-6.75,5.12-9.65,6.46
					c-2.91,1.34-5.9,2-8.96,2c-3.53,0-6.52-1.11-8.96-3.34c-2.45-2.23-3.68-4.82-3.68-7.79c0-2.37,0.54-4.6,1.61-6.68
					c0.92-1.93,2.6-4.3,5.06-7.12c-6.29-2.97-12.49-5.34-18.62-7.12c-1.99,1.04-3.99,2.15-5.98,3.34
					c-4.45,2.82-8.73,6.01-12.87,9.57c-4.14,3.56-7.44,7.12-9.88,10.69c-0.92,1.19-1.69,1.78-2.3,1.78c-0.61,0-0.92-0.3-0.92-0.89
					c0-1.34,1.19-3.34,3.56-6.01c2.37-2.67,5.55-5.71,9.54-9.13c5.06-4.15,10.11-7.64,15.17-10.46c-8.12-2.08-16.17-3.12-24.14-3.12
					c-24.52,0-41.99,5.64-52.41,16.92h0.46c15.02,0,26.21,6.68,33.56,20.04c10.72,2.97,18.16,8.68,22.3,17.14
					c3.37,1.19,6.36,2.89,8.96,5.12c1.68,1.49,3.22,3.04,4.6,4.67C693.65,381.18,712.81,369.53,733.19,352.75z M642.16,379.92
					c0-0.59,0-1.19,0-1.78c-6.75,0.45-13.26,2.08-19.54,4.9c-2.45,1.19-4.83,2.45-7.13,3.79c6.59,3.71,14.79,5.86,24.6,6.46
					C641.32,389.26,642.01,384.81,642.16,379.92z M647.22,375.24c3.98,0,7.74,0.45,11.26,1.34c-3.68-5.19-9.27-8.83-16.78-10.91
					c1.07,2.97,1.84,6.16,2.3,9.57H647.22z M663.31,391.49c-0.31-4.15-1.23-7.87-2.76-11.13c-4.29-1.63-9.27-2.45-14.94-2.45h-1.38
					v2.23c0,4.75-0.54,9.13-1.61,13.13h2.3C650.44,393.27,656.56,392.68,663.31,391.49z M668.59,384.81
					c-1.53-1.19-3.14-2.15-4.83-2.89c0.92,2.67,1.61,5.64,2.07,8.91c2.14-0.59,4.37-1.19,6.67-1.78
					C671.43,387.41,670.13,386,668.59,384.81z M708.82,329.83c0.76-1.19,1.15-2.37,1.15-3.56c0-1.19-0.5-2.23-1.49-3.12
					c-1-0.89-2.18-1.34-3.56-1.34c-3.07,0-6.82,0.89-11.26,2.67c-0.77,0.3-1.53,0.6-2.3,0.89c3.52,1.34,7.13,2.89,10.8,4.68
					c1.68,0.74,3.29,1.56,4.83,2.45C707.9,331.46,708.51,330.57,708.82,329.83z M713.65,342.74c-2.45,2.97-4.06,5.2-4.83,6.68
					c-0.77,1.49-1.15,2.89-1.15,4.23c0,1.04,0.42,1.97,1.26,2.78c0.84,0.82,1.72,1.22,2.64,1.22c1.68,0,3.83-0.56,6.44-1.67
					c2.6-1.11,4.9-2.48,6.9-4.12l3.22-2.67c-4.29-3.12-8.58-5.93-12.87-8.46C714.64,341.33,714.11,342,713.65,342.74z
					 M744.91,432.45l-0.23-4.9l-0.46,0.67c-3.83,4.75-9.27,12.24-16.32,22.48c-4.6,7.27-6.9,13.28-6.9,18.03
					c0,5.49,2.45,8.24,7.36,8.24c5.21,0,12.64-6.31,22.3-18.92C747.44,451.23,745.52,442.69,744.91,432.45z M734.57,350.53
					c1.38-2.37,2.76-4.6,4.14-6.68l-6.21,5.12C733.26,349.57,733.95,350.08,734.57,350.53z M748.13,396.39
					c-0.46-2.97-1.92-5.12-4.37-6.46c-1.07,0.45-2.22,0.74-3.45,0.89C743.22,392.6,745.83,394.46,748.13,396.39z M742.84,387.26
					c0.31,0.3,0.69,0.52,1.15,0.67c2.3-1.04,4.83-2.45,7.59-4.23C748.82,385.04,745.91,386.22,742.84,387.26z M745.14,342.96
					c-0.46,0.44-0.84,0.89-1.15,1.33c1.68-1.63,3.45-3.19,5.29-4.67c3.68-2.82,6.55-5.12,8.62-6.9s3.68-3.12,4.83-4.01
					s1.88-1.52,2.18-1.89c0.31-0.37,0.46-0.7,0.46-1l-0.46-0.22c-0.77,0-1.84,0.37-3.22,1.11c-1.38,1.78-3.14,3.71-5.29,5.79
					C752.73,335.91,748.97,339.4,745.14,342.96z"/>
			</g>
		</g>
	</g>
</g>
</svg>
