<svg width="50" height="50" viewBox="0 0 50 50" fill="none" xmlns="http://www.w3.org/2000/svg">
<path d="M37.8846 36.8417C38.5329 36.3452 39.2113 35.8844 39.9854 35.5948C40.7832 35.281 41.4321 34.6845 42.0457 34.1028C43.2941 32.9424 43.4726 31.1901 43.6792 29.6019C43.7319 29.3225 43.7839 29.0431 43.8346 28.763L48.8301 23.809C48.8615 23.7778 48.8795 23.7351 48.8795 23.6912C48.8795 23.6473 48.8615 23.6047 48.8301 23.5735L44.3615 19.142C44.2004 18.6863 44.0008 18.2407 43.8076 17.7971C43.3005 16.7716 43.065 15.6603 43.0149 14.5241C43.0143 14.3389 43.0002 14.1479 43.0406 13.9684C43.0425 13.9639 43.0438 13.9582 43.047 13.9544C43.0599 13.9378 43.0355 13.9156 43.0201 13.9302C43.0188 13.9315 43.0181 13.9328 43.0168 13.9334C43.0149 13.9359 43.0136 13.9378 43.0117 13.9398C43.0117 13.9398 43.0117 13.9398 43.0124 13.9391C43.0117 13.9398 43.0104 13.941 43.0098 13.9417C42.6009 14.8544 42.2704 15.8544 42.3224 16.8703C42.3224 16.8665 42.3224 16.862 42.3224 16.8576C42.3243 16.9486 42.3281 17.0396 42.3339 17.13L41.0098 15.8169C40.9636 15.37 40.8461 14.9264 40.7261 14.4961C40.3679 13.1581 39.1677 12.3536 38.0971 11.5923C37.3455 10.9927 36.5887 10.3944 35.8044 9.84185C35.7916 9.83039 35.7774 9.81066 35.7595 9.82085C35.7421 9.83612 35.7595 9.85522 35.7672 9.87177C35.7672 9.87177 35.7672 9.87177 35.7672 9.87113C35.7678 9.87241 35.7685 9.87368 35.7691 9.87559C35.7691 9.87495 35.7685 9.87432 35.7685 9.87368C35.7723 9.88195 35.7762 9.89023 35.78 9.89787C35.7794 9.89659 35.7787 9.89468 35.7781 9.89341C35.893 10.1429 36.0945 10.3434 36.2287 10.5834C36.3519 10.8316 36.4148 11.1034 36.5168 11.3606L25.108 0.049012C25.0765 0.0178226 25.0335 0 24.9893 0C24.945 0 24.902 0.0178226 24.8705 0.049012L13.4308 11.393C13.5406 11.127 13.6035 10.8431 13.7319 10.584C13.866 10.3434 14.0676 10.1436 14.1824 9.89405C14.1818 9.89532 14.1812 9.89723 14.1805 9.8985C14.1844 9.89023 14.1882 9.88259 14.1921 9.87431C14.1921 9.87495 14.1914 9.87559 14.1914 9.87622C14.1921 9.87495 14.1927 9.87368 14.1934 9.87177C14.1934 9.87177 14.1934 9.87177 14.1934 9.87241C14.2011 9.85586 14.2184 9.8374 14.2011 9.82148C14.1824 9.8113 14.1683 9.83103 14.1555 9.84249C13.3712 10.3956 12.6144 10.994 11.8628 11.5929C10.7922 12.3542 9.59195 13.1588 9.2338 14.4967C9.11185 14.9334 8.99246 15.384 8.94818 15.8385L7.62469 17.151C7.6311 17.0536 7.6356 16.9562 7.63752 16.8582C7.63752 16.8627 7.63752 16.8665 7.63752 16.8709C7.68951 15.855 7.35896 14.8551 6.9501 13.9423C6.94946 13.9417 6.94818 13.9404 6.94754 13.9398C6.94754 13.9398 6.94818 13.9398 6.94818 13.9404C6.94625 13.9385 6.94497 13.9359 6.94304 13.934C6.9424 13.9328 6.94112 13.9315 6.93983 13.9308C6.92443 13.9162 6.90004 13.9385 6.91288 13.955C6.91609 13.9595 6.91737 13.9646 6.91929 13.969C6.95973 14.1485 6.94561 14.3395 6.94497 14.5247C6.89426 15.6609 6.65935 16.7716 6.15229 17.7977C5.95524 18.2509 5.75113 18.706 5.5881 19.1719L1.14908 23.5741C1.08361 23.639 1.08361 23.7447 1.14908 23.8096L6.12083 28.7401C6.17347 29.0278 6.22674 29.3155 6.28066 29.6026C6.48733 31.1907 6.66641 32.943 7.91416 34.1034C8.52712 34.6845 9.17667 35.281 9.97449 35.5954C10.7479 35.8857 11.427 36.3459 12.0753 36.8423C12.314 37.0893 12.5348 37.3592 12.7364 37.638C12.7338 37.6342 12.7312 37.631 12.7293 37.6272C13.3493 38.4419 14.1074 39.1663 14.8615 39.8601C14.8641 39.8626 14.8673 39.8652 14.8705 39.8677C14.8686 39.8658 14.866 39.8645 14.8641 39.8626C15.9848 41.0357 17.4084 41.8549 18.7723 42.7142C18.7524 42.7123 18.7332 42.7104 18.7133 42.7079C17.7909 42.5379 16.7826 42.5271 15.9193 42.1706C14.4713 41.0784 13.2158 39.7468 11.7261 38.6972C11.7319 38.701 11.7376 38.7054 11.7434 38.7092C11.0207 38.1911 10.3384 37.6214 9.55858 37.1854C9.56307 37.188 9.56756 37.1905 9.57205 37.1924C8.49632 36.547 7.21583 36.3204 5.98476 36.2281C5.98348 36.2287 5.98155 36.2287 5.98027 36.2294H5.98091C5.9777 36.23 5.97449 36.2306 5.97064 36.2313C5.96872 36.2313 5.96679 36.2319 5.96487 36.2326C5.94047 36.2402 5.95075 36.2797 5.97578 36.2752C5.9822 36.2746 5.98861 36.2765 5.99503 36.2765C6.2139 36.3376 6.41352 36.4636 6.61442 36.5718C7.82173 37.2854 8.89426 38.1828 9.71647 39.3209C10.5509 40.3642 11.3744 41.4495 12.5875 42.0834C13.2723 42.5926 14.0348 43.0834 14.9161 43.1235C16.2011 43.1611 17.4507 42.6779 18.7434 42.888C18.7357 42.8874 18.728 42.8861 18.7203 42.8854C19.5098 42.9726 20.1427 43.5207 20.8564 43.83C20.8506 43.8275 20.8455 43.8249 20.8403 43.8218C21.1324 43.9459 21.4206 44.0751 21.7107 44.203L24.8712 47.3373C24.9026 47.3684 24.9456 47.3863 24.9899 47.3863C25.0342 47.3863 25.0772 47.3684 25.1086 47.3373L28.2845 44.1878C28.5631 44.0649 28.8397 43.9408 29.1202 43.8218C29.1151 43.8243 29.1093 43.8269 29.1041 43.83C29.8179 43.5213 30.4507 42.9726 31.2402 42.8854C31.2325 42.8861 31.2248 42.8874 31.2171 42.888C32.5091 42.6786 33.7595 43.1617 35.0444 43.1235C35.9257 43.084 36.6882 42.5926 37.3724 42.0834C38.5855 41.4495 39.409 40.3648 40.2434 39.3209C41.0656 38.1828 42.1382 37.2854 43.3455 36.5718C43.547 36.4636 43.746 36.3376 43.9649 36.2765C43.9713 36.2758 43.9777 36.2746 43.9841 36.2752C44.0091 36.2797 44.0194 36.2402 43.995 36.2326C43.9931 36.2319 43.9912 36.2319 43.9892 36.2313C43.986 36.2306 43.9822 36.23 43.979 36.2294H43.9796C43.9783 36.2287 43.9764 36.2287 43.9751 36.2281C42.7441 36.3204 41.4636 36.547 40.3878 37.1924C40.3923 37.1899 40.3968 37.1873 40.4013 37.1854C39.6221 37.6214 38.9392 38.1911 38.2165 38.7092C38.2222 38.7054 38.228 38.701 38.2338 38.6972C36.7441 39.7474 35.4886 41.0784 34.0406 42.1706C33.1773 42.5271 32.169 42.5373 31.2466 42.7079C31.2267 42.7104 31.2075 42.7123 31.1876 42.7142C32.5515 41.8556 33.9751 41.0357 35.0958 39.8626C35.0939 39.8645 35.0913 39.8664 35.0894 39.8677C35.0926 39.8652 35.0952 39.8626 35.0984 39.8601C35.8525 39.1663 36.6106 38.4425 37.2306 37.6272C37.2287 37.631 37.2261 37.6342 37.2235 37.638C37.4251 37.3586 37.6459 37.0887 37.8846 36.8417ZM37.9944 36.5254C38.945 35.1645 39.7806 33.6979 40.4129 32.1563L41.0502 31.5242C40.9507 32.1334 40.893 32.7502 40.7569 33.3523C40.6978 33.5681 40.6253 33.8061 40.4841 33.9926C40.4841 33.992 40.4848 33.992 40.4848 33.9914C40.3115 34.2205 40.0695 34.3854 39.8789 34.5986C39.6792 34.8634 39.5785 35.1893 39.348 35.4331C38.9514 35.8634 38.4411 36.1549 37.9944 36.5254ZM43.7126 28.299C43.7113 28.3194 43.71 28.3397 43.7088 28.3601C43.7036 28.3836 43.6991 28.4066 43.6946 28.4301L43.2133 28.9075C43.4527 28.3645 43.6844 27.8178 43.8782 27.2551C43.8262 27.6033 43.7389 27.9483 43.7126 28.299ZM42.8962 29.2226L41.4546 30.6522C41.8744 29.3454 42.8185 28.2659 43.7254 27.2576C43.4482 27.9113 43.1741 28.5676 42.8962 29.2226ZM42.5464 30.0405C42.0509 31.1901 41.5367 32.3313 40.9726 33.4471C41.0907 32.7247 41.1747 31.9959 41.3018 31.2753L42.5464 30.0405ZM40.5149 34.1346C40.2922 34.4134 40.0656 34.6877 39.8474 34.9703C39.8622 34.9302 39.8776 34.8908 39.8923 34.8513C40.0284 34.5579 40.271 34.3408 40.5149 34.1346ZM42.4584 33.3205C41.9071 34.076 41.1581 34.7094 40.3538 35.1804C40.3179 35.195 40.2819 35.209 40.2466 35.2243C40.2492 35.223 40.2511 35.2224 40.2537 35.2211C40.0695 35.2835 39.8898 35.3542 39.7056 35.414C39.721 35.4013 39.7364 35.3885 39.7505 35.3745C41.0066 34.1301 41.7049 32.5026 42.3532 30.8922C42.5053 30.5077 42.6702 30.129 42.8378 29.7509L43.5926 29.0023C43.3583 30.4848 43.3012 32.0354 42.4584 33.3205ZM48.4732 23.6912L43.9366 28.1908C44.0566 27.5059 44.1664 26.8191 44.253 26.1316C44.2588 26.1113 44.2717 26.0845 44.2498 26.0712C44.2229 26.0616 44.2126 26.0909 44.1991 26.1087C44.1991 26.1087 44.1991 26.1087 44.1998 26.1081C44.1985 26.1094 44.1972 26.1113 44.1966 26.1125C44.1972 26.1119 44.1972 26.1113 44.1978 26.1106C44.1914 26.1195 44.1844 26.1285 44.178 26.1374C44.1792 26.1361 44.1805 26.1342 44.1818 26.1329C43.9771 26.4009 43.8763 26.7331 43.6921 27.0158C43.4777 27.313 43.1927 27.5511 42.9629 27.8356C42.8789 27.9362 42.7967 28.0374 42.7152 28.1399C42.7319 27.9139 42.7486 27.6886 42.7685 27.4626C42.7685 27.4677 42.7685 27.4721 42.7678 27.4772C42.8198 26.8496 42.667 26.1864 42.909 25.59C42.9064 25.5957 42.9045 25.6014 42.902 25.6071C43.2498 24.6053 44.083 23.9013 44.5522 22.9713C44.8641 22.3284 44.8031 21.5952 44.6985 20.9103C44.7017 20.5347 44.6504 20.1706 44.5637 19.8148L48.4732 23.6912ZM42.5791 18.9874C42.764 20.4545 43.2434 21.8638 43.4751 23.3176C43.3994 24.0706 43.0175 24.793 42.7845 25.5161C42.7787 25.5308 42.7723 25.546 42.7665 25.5607C42.6715 24.2565 42.6279 22.9255 42.2113 21.6741C42.212 21.6766 42.212 21.6786 42.2126 21.6805C42.212 21.6773 42.2113 21.6747 42.2107 21.6716C41.9995 20.8664 41.7685 20.0459 41.4174 19.2897C41.4193 19.2922 41.4206 19.2954 41.4225 19.2986C41.2986 19.0478 41.1882 18.7862 41.1016 18.5201C40.9925 17.8664 40.9212 17.2045 41.0098 16.5412C41.0188 16.4629 41.0245 16.3846 41.0271 16.307L42.3833 17.6519C42.4392 18.1039 42.5207 18.5526 42.5817 19.0045C42.581 18.9988 42.5797 18.9931 42.5791 18.9874ZM8.93277 16.3254C8.93598 16.3974 8.94047 16.4699 8.94946 16.5418C9.03804 17.2051 8.96679 17.8664 8.85768 18.5208C8.77103 18.7862 8.66063 19.0478 8.53675 19.2992C8.53868 19.2961 8.53996 19.2929 8.54189 19.2903C8.19079 20.0472 7.95973 20.867 7.74856 21.6722C7.74792 21.6754 7.74728 21.6779 7.74664 21.6811C7.74728 21.6792 7.74728 21.6766 7.74792 21.6747C7.33136 22.9268 7.28771 24.2577 7.19272 25.5613C7.1863 25.5467 7.18053 25.5314 7.17475 25.5168C6.94176 24.7937 6.55922 24.0712 6.48412 23.3182C6.71583 21.8644 7.19529 20.4552 7.38014 18.988C7.3795 18.9937 7.37886 18.9994 7.37822 19.0052C7.43791 18.5602 7.51814 18.1191 7.57398 17.6742L8.93277 16.3254ZM1.50466 23.6912L5.38849 19.8397C5.30569 20.1878 5.25627 20.543 5.25947 20.9103C5.1555 21.5952 5.09388 22.3278 5.40582 22.9713C5.87501 23.9013 6.70813 24.6053 7.05601 25.6071C7.05344 25.6014 7.05152 25.5957 7.04895 25.59C7.29093 26.1864 7.13816 26.849 7.19015 27.4772C7.19015 27.4721 7.19016 27.4677 7.18951 27.4626C7.21005 27.6886 7.2261 27.9139 7.24279 28.1399C7.16127 28.0374 7.07847 27.9362 6.99503 27.8356C6.76525 27.5511 6.48027 27.313 6.26589 27.0158C6.08232 26.7325 5.98155 26.4009 5.77616 26.1329C5.77745 26.1342 5.77873 26.1361 5.78001 26.1374C5.77359 26.1285 5.76718 26.1195 5.76012 26.1106C5.76076 26.1113 5.76076 26.1119 5.7614 26.1125C5.76012 26.1113 5.75947 26.1094 5.75819 26.1081C5.75819 26.1081 5.75819 26.1081 5.75883 26.1087C5.74535 26.0909 5.73508 26.061 5.70813 26.0712C5.6863 26.0852 5.69914 26.1113 5.70492 26.1316C5.79093 26.8114 5.8994 27.4906 6.0175 28.1679L1.50466 23.6912ZM8.65357 31.2524C8.78258 31.9812 8.8673 32.7177 8.98669 33.4478C8.41673 32.3211 7.89811 31.1684 7.39811 30.0074L8.65357 31.2524ZM7.04895 29.1895C6.77552 28.5453 6.50594 27.9005 6.2338 27.2576C7.13431 28.2582 8.07141 29.3295 8.49567 30.6242L7.04895 29.1895ZM6.24985 28.3601C6.24856 28.3397 6.24728 28.3194 6.246 28.299C6.21968 27.9483 6.13239 27.6033 6.07976 27.2551C6.26974 27.8057 6.49567 28.341 6.72995 28.8731L6.25883 28.4059C6.25562 28.3906 6.25306 28.3754 6.24985 28.3601ZM9.70556 35.2211C9.70813 35.2224 9.71005 35.223 9.71262 35.2243C9.67667 35.2097 9.64073 35.195 9.60543 35.1804C8.80119 34.7094 8.05151 34.0754 7.50081 33.3205C6.65421 32.029 6.60029 30.4689 6.36345 28.9807L7.10671 29.7178C7.27937 30.1067 7.4501 30.4969 7.60671 30.8928C8.25498 32.5032 8.95331 34.1308 10.2094 35.3752C10.2242 35.3885 10.2396 35.4013 10.2543 35.4146C10.0695 35.3542 9.88913 35.2835 9.70556 35.2211ZM9.44368 34.1346C9.68759 34.3402 9.9302 34.5579 10.0663 34.8507C10.0817 34.8901 10.0964 34.9302 10.1112 34.9697C9.89298 34.6884 9.66641 34.4134 9.44368 34.1346ZM10.6106 35.4331C10.3801 35.1893 10.2787 34.8634 10.0798 34.5986C9.88913 34.3854 9.64779 34.2212 9.47385 33.9914C9.47385 33.992 9.47449 33.992 9.47449 33.9926C9.33329 33.8061 9.2614 33.5681 9.20171 33.3523C9.06435 32.7425 9.00594 32.1175 8.90453 31.5013L9.5329 32.1245C10.1664 33.6782 11.0072 35.1556 11.9642 36.5254C11.5181 36.1549 11.0072 35.8634 10.6106 35.4331ZM10.2178 33.162C10.1504 32.9946 10.0323 32.7584 9.90581 32.4943L12.9109 35.4745C13.1016 36.6189 13.2723 37.7303 14.1041 38.8015C12.4925 37.1587 11.2498 35.2027 10.2178 33.162ZM16.5066 40.9339C16.5111 40.9371 16.5162 40.9409 16.5207 40.9441C16.5143 40.9396 16.5079 40.9345 16.5008 40.9301C16.5021 40.9313 16.5034 40.932 16.5053 40.9332C15.8756 40.4469 15.1825 39.9657 14.7421 39.2993C14.7441 39.3025 14.746 39.3057 14.7486 39.3088C14.2492 38.5737 13.7261 37.8379 13.4636 36.9811C13.4636 36.9817 13.4642 36.983 13.4642 36.9836C13.4617 36.9766 13.4597 36.969 13.4572 36.962C13.4578 36.9646 13.4591 36.9677 13.4597 36.9703C13.4559 36.9582 13.452 36.9461 13.4475 36.934C13.4501 36.9416 13.4527 36.9486 13.4552 36.9563C13.402 36.7927 13.3538 36.6272 13.3127 36.4604C13.3127 36.4623 13.3127 36.4636 13.3134 36.4655C13.3127 36.456 13.3115 36.4458 13.3102 36.4362C13.3108 36.4407 13.3108 36.4445 13.3115 36.449C13.3102 36.4324 13.3083 36.4159 13.307 36.3993C13.307 36.4 13.307 36.4006 13.307 36.4012C13.307 36.398 13.3063 36.3949 13.3057 36.3917C13.2723 36.2052 13.2704 36.027 13.2916 35.8538L21.1427 43.6378C19.486 42.937 17.979 41.9549 16.5066 40.9339ZM24.9893 46.9808L13.3776 35.4655C13.5066 35.0531 13.7409 34.668 13.9501 34.281C14.59 33.0901 13.9745 31.8998 13.5913 30.7343C13.5913 30.7349 13.5919 30.7356 13.5919 30.7368C13.5907 30.733 13.5887 30.7292 13.5875 30.7248V30.7254C13.5862 30.7216 13.5842 30.7171 13.583 30.7133C13.3282 30.0456 12.9668 29.4224 12.6651 28.777C12.4604 28.2417 12.402 27.7382 12.4039 28.7114C12.4032 28.7095 12.4032 28.707 12.4032 28.7057C12.4212 29.4587 12.0785 30.1589 12.0361 30.9055C12.0072 31.3759 12.1427 31.831 12.2486 32.2842C12.3108 32.7253 12.316 33.1785 12.4803 33.6005C12.479 33.5967 12.4777 33.5929 12.4764 33.5891C12.4771 33.5916 12.4783 33.5948 12.479 33.5974C12.4816 33.6044 12.4835 33.6114 12.4854 33.6184C12.4848 33.6171 12.4848 33.6158 12.4841 33.6146C12.486 33.6216 12.4886 33.6279 12.4905 33.6349C12.4899 33.633 12.4893 33.6317 12.4886 33.6298C12.635 34.0588 12.7312 34.4834 12.8095 34.9041L9.55151 31.6732C9.40774 31.269 9.33778 30.8922 9.47449 30.6694C9.47192 30.6738 9.47 30.6783 9.46743 30.6827C9.47192 30.6745 9.47642 30.6662 9.48027 30.6579C9.47834 30.6611 9.47706 30.6649 9.47513 30.6681C9.49567 30.6293 9.51685 30.5911 9.53739 30.5523C9.5329 30.5605 9.52841 30.5688 9.52456 30.5777C9.65485 30.3575 9.77167 30.1264 9.9302 29.924C10.3115 29.5281 10.5669 29.0488 10.8468 28.5835C10.8448 28.5867 10.8436 28.5899 10.8416 28.5931C10.8429 28.5899 10.8448 28.5873 10.8461 28.5841C10.8461 28.5848 10.8455 28.5848 10.8455 28.5854C10.8487 28.5797 10.8513 28.574 10.8545 28.5682C10.8545 28.5682 10.8545 28.5682 10.8545 28.5689C12.0412 26.4079 10.5438 25.1247 10.7781 23.1114C10.7556 22.8631 10.5053 23.4226 10.4591 23.4907C9.95074 24.6594 9.5727 25.8115 9.71262 27.1023C9.79285 28.2691 9.44304 29.3772 9.21069 30.5039C8.7415 29.0151 8.43855 27.4741 8.7062 25.9184C8.7062 25.919 8.7062 25.9197 8.70556 25.9203C8.70877 25.9057 8.71198 25.8917 8.71519 25.877C9.02841 24.9522 8.66255 24.0241 8.68951 23.0865C8.72225 22.4697 8.92058 21.8816 9.14651 21.3119C9.36923 20.9809 9.60543 20.6328 9.6709 20.2362C9.6709 20.2343 9.6709 20.2324 9.6709 20.2305C9.6709 20.2311 9.6709 20.2311 9.6709 20.2317C9.67347 20.2107 9.67411 20.1891 9.67475 20.1675C9.67475 20.1681 9.67475 20.1681 9.67475 20.1687C9.67539 20.1598 9.67539 20.1503 9.67539 20.1414C9.67539 20.1426 9.67539 20.1439 9.67539 20.1452C9.67732 19.6754 9.58232 20.1751 9.49953 20.2871C9.50081 20.2852 9.50273 20.2827 9.50402 20.2808C9.49311 20.2967 9.48155 20.3132 9.47128 20.3291C9.47257 20.3266 9.47449 20.324 9.47578 20.3221C9.44304 20.368 9.41993 20.4208 9.37821 20.4596C9.38078 20.4564 9.38399 20.4533 9.3872 20.4494C9.37115 20.4679 9.35447 20.4857 9.33778 20.5042C9.33906 20.5029 9.34035 20.5016 9.34163 20.4997C9.23187 20.6207 9.108 20.7282 9.0053 20.8555C9.00851 20.8524 9.01108 20.8492 9.01429 20.8454C8.93085 20.9408 8.8519 21.0408 8.76653 21.1343C8.76717 21.1337 8.76782 21.1324 8.7691 21.1318C7.50466 22.3278 7.513 24.5823 8.02199 26.1355C8.05408 26.2309 8.08682 26.3264 8.11827 26.4225C8.22417 26.7395 8.30954 27.0641 8.35447 27.3951C8.35447 27.3919 8.35447 27.3888 8.35383 27.3849C8.35383 27.3907 8.35447 27.3958 8.35447 27.4015C8.47128 28.7592 8.78322 30.0857 9.24086 31.3657L8.789 30.9176C8.77103 30.8412 8.75241 30.7649 8.73187 30.6891C8.73252 30.691 8.73316 30.6929 8.7338 30.6948C8.73123 30.6866 8.72802 30.6777 8.72546 30.6694C8.72546 30.6707 8.7261 30.6713 8.72674 30.6726C8.43085 29.8527 7.97706 29.1074 7.45331 28.4129C7.52456 28.222 7.42122 27.9718 7.45139 27.7618C7.29413 26.2596 7.42764 24.7542 7.60415 23.2597C7.6035 23.2641 7.60286 23.2692 7.60222 23.2737C7.60286 23.2673 7.60415 23.2609 7.60479 23.2539C7.60479 23.2552 7.60415 23.2565 7.60415 23.2584C7.71326 22.6219 7.79349 21.9421 8.10671 21.3705C8.10543 21.373 8.10415 21.3756 8.10222 21.3788C8.44176 20.7391 8.77231 20.0815 9.29221 19.5634C9.29156 19.564 9.29092 19.5647 9.29092 19.5647C9.29542 19.5602 9.29927 19.5558 9.30376 19.5513C9.30184 19.5532 9.30055 19.5545 9.29863 19.5564C9.30569 19.5488 9.31275 19.5418 9.31981 19.5341C9.31532 19.5386 9.31082 19.5437 9.30633 19.5481C9.40453 19.4469 9.5053 19.3483 9.61057 19.2553C9.60928 19.256 9.60864 19.2566 9.60736 19.2572C9.61442 19.2528 9.62083 19.2483 9.62789 19.2439C9.62533 19.2458 9.62212 19.2477 9.61955 19.2496C9.6311 19.242 9.64201 19.2343 9.65357 19.2273C9.65293 19.2273 9.65293 19.228 9.65228 19.228C9.65421 19.2267 9.65678 19.2248 9.6587 19.2235C10.1786 18.8149 10.8185 18.8677 11.4353 18.8671C12.5451 18.8626 13.1696 17.9645 13.866 17.2407C13.8654 17.2414 13.8654 17.242 13.8647 17.2427C13.8673 17.2401 13.8692 17.2376 13.8718 17.235C13.8718 17.235 13.8718 17.235 13.8712 17.2357C13.8737 17.2331 13.8756 17.2306 13.8782 17.2274C14.2633 16.7875 14.5753 16.2898 14.9264 15.8251C15.2351 15.4725 15.5772 15.2363 14.8731 15.6138C14.8744 15.6125 14.8756 15.6119 14.8769 15.6113C14.3384 15.9155 13.6985 15.9416 13.1414 16.2C12.789 16.3611 12.5124 16.6341 12.2248 16.8843C11.9296 17.0994 11.6029 17.2777 11.3609 17.5584C11.3635 17.5558 11.3654 17.5533 11.3679 17.5514C11.366 17.5533 11.3647 17.5545 11.3628 17.5565C11.3583 17.5609 11.3545 17.5647 11.35 17.5692C11.3506 17.5686 11.3513 17.5679 11.3519 17.5673C11.348 17.5717 11.3436 17.5756 11.3397 17.58C11.341 17.5787 11.3416 17.5781 11.3429 17.5768C10.2749 18.7124 8.91544 19.1859 8.22032 20.7257C8.78707 18.9428 9.72417 17.3012 10.8038 15.7774C11.1305 15.3904 11.816 14.2587 12.323 14.2848C12.3192 14.2848 12.3147 14.2848 12.3108 14.2848C12.3185 14.2848 12.3262 14.2848 12.3339 14.2841C12.3307 14.2841 12.3275 14.2841 12.3243 14.2848C12.3602 14.2848 12.3962 14.2848 12.4321 14.2841C12.4244 14.2841 12.4167 14.2841 12.4084 14.2848C12.6183 14.2924 12.8307 14.2867 13.0387 14.321C13.4732 14.4394 13.9187 14.4362 14.3641 14.456C14.3609 14.456 14.3583 14.456 14.3551 14.456C14.3577 14.456 14.3602 14.456 14.3628 14.456C14.3622 14.456 14.3622 14.456 14.3615 14.456C14.3667 14.456 14.3718 14.456 14.3776 14.456C16.402 14.4662 16.7524 12.9035 18.3018 12.2924C18.4726 12.1804 17.9706 12.2186 17.9039 12.2116C16.8609 12.3014 15.8801 12.477 14.9989 13.076C14.1844 13.5846 13.2466 13.7628 12.3403 14.0327C13.2376 13.1231 14.237 12.3115 15.4674 11.9004C15.4668 11.9004 15.4668 11.9004 15.4661 11.901C15.4777 11.8978 15.4893 11.8946 15.5014 11.8914C16.2928 11.7571 16.823 11.1378 17.513 10.7947C17.9726 10.5796 18.4751 10.4936 18.9751 10.4345C19.3005 10.465 19.6446 10.4987 19.9572 10.3924C19.9584 10.3918 19.9604 10.3912 19.9617 10.3905L19.961 10.3912C19.9771 10.3848 19.9931 10.3772 20.0092 10.3695C20.0085 10.3695 20.0085 10.3695 20.0079 10.3702C20.0149 10.367 20.0213 10.3632 20.0278 10.36C20.0265 10.3606 20.0258 10.3606 20.0246 10.3613C20.366 10.1811 19.9668 10.3065 19.8538 10.2906C19.8557 10.2906 19.8583 10.2912 19.8602 10.2912C19.8442 10.29 19.8281 10.2881 19.8121 10.2868C19.814 10.2868 19.8166 10.2874 19.8192 10.2874C19.7736 10.2817 19.7261 10.2855 19.6818 10.2709C19.685 10.2715 19.6889 10.2721 19.6927 10.2734C19.6728 10.269 19.6536 10.2645 19.6343 10.2594C19.6356 10.26 19.6375 10.26 19.6388 10.2607C19.5085 10.2295 19.3834 10.1824 19.2511 10.1588C19.255 10.1595 19.2582 10.1607 19.262 10.1614C19.1606 10.1391 19.0579 10.1213 18.9565 10.0965C18.9572 10.0965 18.9584 10.0971 18.9597 10.0971C17.6041 9.65854 15.9745 10.5363 15.0457 11.4987C14.9893 11.5585 14.9328 11.619 14.875 11.6782C14.6863 11.8762 14.4841 12.0627 14.262 12.2224C14.2646 12.2212 14.2665 12.2199 14.2691 12.2186C14.2653 12.2212 14.2614 12.2231 14.2575 12.2256C11.9758 13.7036 10.2704 15.934 9.04189 18.3241C9.13752 17.8626 9.15164 17.3859 9.31018 16.9371C9.39747 16.6787 9.59452 16.4807 9.70941 16.2363C9.79028 16.018 9.81596 15.7825 9.9148 15.5705C9.9148 15.5712 9.91416 15.5712 9.91416 15.5718C9.99503 15.3987 10.1394 15.2554 10.273 15.13C10.8339 14.6482 11.4822 14.2727 12.022 13.766C12.0207 13.7673 12.0194 13.7685 12.0181 13.7698C12.0233 13.7647 12.0284 13.7596 12.0335 13.7539C12.0329 13.7545 12.0323 13.7552 12.0316 13.7558C12.4418 13.3045 12.7678 12.7921 13.0412 12.2523L24.9893 0.40228L36.8955 12.2097C37.1735 12.7635 37.5053 13.2892 37.9251 13.7514C37.9244 13.7507 37.9238 13.7501 37.9231 13.7494C37.9283 13.7545 37.9334 13.7596 37.9385 13.7654C37.9373 13.7641 37.936 13.7628 37.9347 13.7615C38.4745 14.2682 39.1228 14.6437 39.6837 15.1256C39.8172 15.251 39.9617 15.3948 40.0425 15.5673C40.0425 15.5667 40.0419 15.5667 40.0419 15.5661C40.1407 15.7787 40.167 16.0142 40.2473 16.2319C40.3622 16.4763 40.5592 16.6742 40.6465 16.9327C40.8044 17.3814 40.8192 17.8582 40.9148 18.3196C39.6863 15.9295 37.9809 13.6998 35.6991 12.2212C35.6953 12.2186 35.6914 12.2167 35.6876 12.2142C35.6901 12.2154 35.6921 12.2167 35.6946 12.218C35.4719 12.0582 35.2697 11.8711 35.0817 11.6738C35.0246 11.6146 34.9681 11.5541 34.9109 11.4943C33.9822 10.5312 32.3525 9.65408 30.997 10.0926C30.9982 10.0926 30.9989 10.092 31.0002 10.092C30.8994 10.1168 30.7961 10.1347 30.6946 10.1569C30.6985 10.1563 30.7017 10.155 30.7056 10.1544C30.574 10.1779 30.4482 10.225 30.3179 10.2562C30.3192 10.2556 30.3211 10.2556 30.3224 10.255C30.3031 10.26 30.2832 10.2645 30.264 10.269C30.2678 10.2683 30.271 10.267 30.2749 10.2664C30.2306 10.281 30.1831 10.2772 30.1375 10.283C30.1394 10.283 30.142 10.283 30.1446 10.2823C30.1285 10.2836 30.1125 10.2855 30.0964 10.2868C30.0984 10.2868 30.1009 10.2861 30.1029 10.2861C29.9892 10.3021 29.5907 10.176 29.9321 10.3568C29.9308 10.3562 29.9302 10.3562 29.9289 10.3555C29.9353 10.3587 29.9424 10.3625 29.9488 10.3657C29.9482 10.3657 29.9482 10.3657 29.9475 10.3651C29.9629 10.3727 29.979 10.3803 29.9957 10.3867C29.9957 10.3867 29.995 10.3867 29.995 10.3861C29.9963 10.3867 29.9982 10.3873 29.9995 10.388C30.3121 10.4943 30.6561 10.4612 30.9815 10.43C31.4815 10.4892 31.9841 10.5751 32.4437 10.7903C33.1337 11.1333 33.6638 11.7527 34.4552 11.887C34.4668 11.8902 34.479 11.8934 34.4905 11.8965C34.4899 11.8965 34.4899 11.8965 34.4893 11.8959C35.7197 12.3071 36.719 13.118 37.6163 14.0282C36.71 13.7584 35.7723 13.5795 34.9578 13.0715C34.0765 12.4732 33.0958 12.2969 32.0528 12.2072C31.986 12.2142 31.4835 12.176 31.6549 12.288C33.2043 12.8991 33.5547 14.4617 35.5791 14.4515C35.5842 14.4515 35.59 14.4515 35.5952 14.4515C35.5945 14.4515 35.5945 14.4515 35.5939 14.4515C35.5964 14.4515 35.599 14.4515 35.6016 14.4515C35.5984 14.4515 35.5958 14.4515 35.5926 14.4515C36.038 14.4318 36.4841 14.435 36.918 14.3166C37.126 14.2822 37.3378 14.2879 37.5483 14.2803C37.5406 14.2797 37.5329 14.2803 37.5252 14.2797C37.5611 14.2803 37.5971 14.2797 37.633 14.2803C37.6298 14.2803 37.6266 14.2803 37.6234 14.2797C37.6311 14.2797 37.6388 14.2803 37.6465 14.2803C37.6427 14.2803 37.6382 14.2803 37.6343 14.2803C38.142 14.2542 38.8269 15.3859 39.1536 15.7729C40.2332 17.2974 41.1702 18.939 41.737 20.7212C41.0419 19.1815 39.6824 18.7086 38.6144 17.5724C38.6157 17.5736 38.6163 17.5743 38.6176 17.5756C38.6138 17.5711 38.6093 17.5673 38.6054 17.5628C38.6061 17.5635 38.6067 17.5641 38.6073 17.5647C38.6029 17.5603 38.599 17.5565 38.5945 17.552C38.5926 17.5501 38.5913 17.5488 38.5894 17.5469C38.5919 17.5495 38.5939 17.5514 38.5964 17.5539C38.3545 17.2738 38.0278 17.095 37.7325 16.8798C37.445 16.6297 37.1683 16.3573 36.8159 16.1956C36.2588 15.9378 35.6189 15.9111 35.0804 15.6068C35.0817 15.6074 35.083 15.6087 35.0842 15.6093C34.3801 15.2319 34.7222 15.468 35.031 15.8207C35.3821 16.2853 35.694 16.7837 36.0791 17.2229C36.0817 17.2255 36.0836 17.228 36.0862 17.2312C36.0862 17.2312 36.0862 17.2306 36.0855 17.2306C36.0881 17.2331 36.09 17.2357 36.0926 17.2382C36.0919 17.2376 36.0919 17.2369 36.0913 17.2363C36.7877 17.96 37.4122 18.8581 38.522 18.8626C39.1388 18.8632 39.7794 18.8104 40.2986 19.219C40.3005 19.2203 40.3031 19.2222 40.305 19.2235C40.3044 19.2235 40.3044 19.2229 40.3038 19.2229C40.3153 19.2305 40.3262 19.2381 40.3378 19.2451C40.3352 19.2432 40.332 19.2413 40.3294 19.2394C40.3358 19.2439 40.3429 19.2483 40.35 19.2528C40.3487 19.2521 40.3474 19.2515 40.3468 19.2509C40.452 19.3444 40.5528 19.4431 40.651 19.5437C40.6465 19.5392 40.642 19.5341 40.6375 19.5297C40.6446 19.5373 40.6516 19.5449 40.6587 19.5519C40.6568 19.55 40.6555 19.5488 40.6536 19.5469C40.6581 19.5513 40.6619 19.5558 40.6664 19.5602C40.6658 19.5596 40.6651 19.5589 40.6651 19.5589C41.1844 20.0771 41.5156 20.7346 41.8551 21.3743C41.8538 21.3717 41.8525 21.3692 41.8506 21.366C42.1638 21.9376 42.2441 22.6168 42.3532 23.2539C42.3532 23.2527 42.3525 23.2514 42.3525 23.2495C42.3532 23.2558 42.3545 23.2622 42.3551 23.2692C42.3545 23.2648 42.3538 23.2597 42.3532 23.2552C42.5297 24.7498 42.6632 26.2551 42.5059 27.7573C42.5361 27.9667 42.4328 28.2169 42.504 28.4085C41.9803 29.1023 41.5265 29.8476 41.2306 30.6681C41.2312 30.6668 41.2312 30.6662 41.2319 30.6649C41.2293 30.6732 41.2261 30.6821 41.2235 30.6904C41.2242 30.6885 41.2248 30.6866 41.2254 30.6847C41.2023 30.7687 41.1818 30.8533 41.1625 30.938L40.7056 31.3912C41.169 30.1022 41.4854 28.7656 41.6029 27.397C41.6029 27.3913 41.6035 27.3862 41.6035 27.3805C41.6035 27.3837 41.6035 27.3869 41.6029 27.3907C41.6478 27.0597 41.7338 26.7351 41.8391 26.4181C41.8705 26.322 41.9032 26.2265 41.9353 26.131C42.4443 24.5779 42.4527 22.3233 41.1882 21.1273C41.1889 21.128 41.1895 21.1292 41.1908 21.1299C41.1054 21.0363 41.0258 20.9364 40.943 20.8409C40.9462 20.8441 40.9488 20.8473 40.952 20.8511C40.8493 20.7238 40.7254 20.6168 40.6157 20.4953C40.617 20.4965 40.6183 20.4978 40.6195 20.4997C40.6022 20.4819 40.5862 20.4634 40.5701 20.445C40.5733 20.4482 40.5759 20.452 40.5791 20.4552C40.5374 20.4157 40.5136 20.3635 40.4815 20.3177C40.4828 20.3202 40.4848 20.3228 40.486 20.3247C40.4758 20.3081 40.4642 20.2922 40.4533 20.2763C40.4546 20.2782 40.4565 20.2808 40.4578 20.2827C40.375 20.17 40.28 19.6703 40.2819 20.1407C40.2819 20.1395 40.2819 20.1382 40.2819 20.1369C40.2819 20.1458 40.2819 20.1554 40.2826 20.1643C40.2826 20.1636 40.2826 20.1636 40.2826 20.163C40.2832 20.1846 40.2845 20.2056 40.2864 20.2273C40.2864 20.2267 40.2864 20.2267 40.2864 20.226C40.2864 20.2279 40.2864 20.2298 40.2864 20.2317C40.3519 20.6283 40.5881 20.9771 40.8108 21.3075C41.0367 21.8771 41.2351 22.4653 41.2678 23.0821C41.2954 24.0197 40.9289 24.9471 41.2421 25.8726C41.2453 25.8872 41.2486 25.9012 41.2518 25.9159C41.2518 25.9152 41.2518 25.9146 41.2511 25.9139C41.5181 27.4696 41.2158 29.0106 40.7466 30.4994C40.5143 29.3728 40.1638 28.2646 40.2447 27.0979C40.3846 25.807 40.0066 24.6549 39.4982 23.4863C39.452 23.4188 39.2017 22.8593 39.1792 23.1069C39.4142 25.1202 37.9161 26.4034 39.1029 28.5644C39.1029 28.5644 39.1029 28.5644 39.1029 28.5638C39.1061 28.5695 39.1086 28.5752 39.1118 28.581C39.1118 28.5803 39.1112 28.5803 39.1112 28.5797C39.1125 28.5822 39.1144 28.5854 39.1157 28.5886C39.1138 28.5854 39.1125 28.5822 39.1106 28.5791C39.3904 29.0443 39.6459 29.5236 40.0271 29.9196C40.185 30.122 40.3025 30.3524 40.4328 30.5733C40.4289 30.565 40.4244 30.5567 40.4199 30.5478C40.4405 30.5866 40.4616 30.6248 40.4822 30.6637C40.4803 30.6605 40.479 30.6566 40.4771 30.6535C40.4809 30.6617 40.4854 30.67 40.4899 30.6783C40.4873 30.6738 40.4854 30.6694 40.4828 30.6649C40.6228 30.8934 40.5457 31.283 40.3949 31.6986L37.1427 34.9239C37.2222 34.4955 37.3192 34.0633 37.4681 33.626C37.4674 33.6279 37.4668 33.6292 37.4661 33.6311C37.4687 33.6241 37.4706 33.6177 37.4726 33.6107C37.4719 33.612 37.4719 33.6133 37.4713 33.6146C37.4732 33.6076 37.4758 33.6005 37.4777 33.5935C37.4783 33.591 37.4796 33.5878 37.4803 33.5853C37.479 33.5891 37.4777 33.5929 37.4764 33.5967C37.6407 33.1754 37.6459 32.7215 37.7081 32.2804C37.8134 31.8272 37.9495 31.3727 37.9206 30.9017C37.8782 30.1551 37.5348 29.4549 37.5534 28.7019C37.5534 28.7038 37.5528 28.7057 37.5528 28.7076C37.5547 27.7344 37.4963 28.2379 37.2916 28.7732C36.9899 29.4186 36.6285 30.0418 36.3737 30.7095C36.3724 30.7133 36.3705 30.7178 36.3692 30.7216V30.7209C36.3679 30.7248 36.366 30.7286 36.3647 30.733C36.3654 30.7324 36.3654 30.7318 36.3654 30.7305C35.9815 31.8959 35.3667 33.0862 36.0066 34.2772C36.2184 34.6686 36.4559 35.0582 36.5842 35.4764L24.9893 46.9808ZM12.8384 29.4581C12.8391 29.46 12.8397 29.4613 12.8403 29.4632C12.8403 29.4638 12.8403 29.4638 12.841 29.4644C12.8397 29.4619 12.8391 29.46 12.8384 29.4581ZM9.81724 29.7127C9.81211 29.7184 9.80697 29.7241 9.80184 29.7299C9.79991 29.7324 9.79734 29.7343 9.79542 29.7369C9.7967 29.7356 9.79734 29.735 9.79863 29.7337L9.79798 29.7343C9.8044 29.7273 9.81082 29.7197 9.81724 29.7127ZM9.72289 29.8158C9.7184 29.8215 9.71454 29.8279 9.71005 29.8336C10.1844 28.6898 10.5958 27.5033 10.3564 26.2481C10.3564 26.2494 10.3564 26.2507 10.357 26.2526C10.2428 25.7103 10.4225 25.1909 10.5149 24.6606C10.5143 24.6632 10.5143 24.6651 10.5136 24.6676C10.5233 24.611 10.5329 24.5537 10.5419 24.4964C10.5412 24.5015 10.54 24.5072 10.5393 24.5123C10.5592 24.3946 10.5932 24.2806 10.6144 24.1629C10.6966 24.5741 10.7377 24.9961 10.8558 25.399C11.5072 26.9451 10.8063 28.6491 9.72289 29.8158ZM10.1972 26.2787C10.3866 27.5511 9.94754 28.7598 9.48605 29.9234C9.92443 28.6051 9.88271 27.2245 9.89105 25.8535C9.94047 25.103 10.3436 24.4423 10.5541 23.7326C10.5252 24.5849 10.0303 25.4073 10.1972 26.2787ZM11.4097 17.6978C11.4135 17.6939 11.4167 17.6901 11.4206 17.6869C11.6767 17.3808 12.0297 17.193 12.3448 16.9581C12.7928 16.5094 13.3397 16.1988 13.9668 16.0746C13.9706 16.074 13.9738 16.0727 13.9777 16.0715C13.9764 16.0721 13.9745 16.0721 13.9732 16.0727C14.1536 16.0237 14.3423 15.9964 14.5149 15.9219C14.1401 16.2325 13.7351 16.5005 13.3153 16.7468C13.3204 16.7436 13.3262 16.7404 13.3314 16.7373C12.7678 17.088 12.1709 17.3827 11.5881 17.7003C11.4623 17.7697 11.3371 17.8397 11.2113 17.9085C11.2133 17.9065 11.2152 17.9046 11.2171 17.9027C11.2152 17.9046 11.2133 17.9072 11.2107 17.9091C11.28 17.8378 11.3468 17.764 11.4161 17.692C11.4135 17.6939 11.4116 17.6959 11.4097 17.6978ZM14.7691 15.8684C14.6818 15.9957 14.5836 16.116 14.4828 16.2331C14.4828 16.2331 14.4828 16.2338 14.4822 16.2338C14.4828 16.2331 14.4835 16.2325 14.4841 16.2312C14.4835 16.2319 14.4828 16.2331 14.4822 16.2338C14.0258 16.827 13.5547 17.4107 12.9835 17.9015C12.7274 18.1592 12.4783 18.4361 12.1195 18.552C11.5406 18.7824 10.9321 18.6023 10.3448 18.7124C10.3211 18.7175 10.298 18.7251 10.2749 18.7321C11.7152 17.6863 13.4238 17.0523 14.7691 15.8684ZM14.5021 16.2109C14.5014 16.2121 14.5002 16.2128 14.4995 16.214L14.4989 16.2147C14.4995 16.2134 14.5008 16.2121 14.5021 16.2109ZM13.1497 14.1568C13.1433 14.1555 13.1375 14.1536 13.1311 14.1524C13.1285 14.1517 13.126 14.1511 13.1234 14.1504C13.1247 14.1504 13.126 14.1511 13.1273 14.1511H13.1266C13.1343 14.153 13.142 14.1549 13.1497 14.1568ZM18.7884 10.2117C18.8416 10.2257 18.8949 10.2384 18.9488 10.2505C18.9469 10.2499 18.9443 10.2492 18.9424 10.2486C19.108 10.2868 19.2781 10.3033 19.4411 10.3504C19.2511 10.3186 19.0631 10.2728 18.8686 10.2887C18.8692 10.2887 18.8705 10.2887 18.8712 10.2887C18.8667 10.2887 18.8628 10.2887 18.8583 10.2887C18.8609 10.2887 18.8628 10.2887 18.8654 10.2887C18.7685 10.2887 18.6715 10.2823 18.574 10.2849C18.5746 10.2849 18.5753 10.2849 18.5765 10.2849C18.5721 10.2849 18.5676 10.2849 18.5637 10.2849C18.565 10.2849 18.5656 10.2849 18.5669 10.2849C18.4925 10.2855 18.418 10.2855 18.3442 10.2868C18.3487 10.2868 18.3532 10.2868 18.3577 10.2868C18.3371 10.2868 18.3172 10.2874 18.2967 10.2874C18.298 10.2874 18.2993 10.2874 18.3006 10.2874C18.2967 10.2874 18.2928 10.2874 18.289 10.2874C18.2909 10.2874 18.2928 10.2874 18.2948 10.2874C17.8988 10.2836 17.5265 10.43 17.1446 10.514C17.1394 10.5153 17.1337 10.5172 17.1285 10.5185C17.1305 10.5178 17.1317 10.5172 17.1337 10.5172C17.0785 10.5318 17.0233 10.5458 16.9687 10.5618C16.9694 10.5618 16.97 10.5618 16.97 10.5611C16.4032 10.7069 15.936 11.0805 15.4661 11.4102C15.3025 11.5286 15.1536 11.6661 14.9809 11.7718C15.3089 11.4433 15.6369 11.1022 16.04 10.8641C16.8827 10.4109 17.8063 9.92142 18.789 10.211C18.7896 10.211 18.7903 10.211 18.7903 10.2117C18.789 10.2117 18.789 10.2117 18.7884 10.2117ZM16.4848 10.9144C16.479 10.9182 16.4732 10.9214 16.4668 10.9252C16.6613 10.8145 16.8724 10.7374 17.0875 10.6751C17.5393 10.5573 17.9783 10.367 18.454 10.388C17.565 10.4688 16.8866 11.0468 16.1837 11.5267C15.7948 11.731 15.3448 11.7851 14.954 11.9888C14.9405 11.9933 14.927 11.9977 14.9135 12.0022C15.4469 11.6553 15.927 11.2295 16.4848 10.9144ZM31.3955 10.2855C31.391 10.2855 31.3866 10.2855 31.3827 10.2855C31.3833 10.2855 31.384 10.2855 31.3853 10.2855C31.2884 10.283 31.1914 10.2893 31.0939 10.2893C31.0964 10.2893 31.0984 10.2893 31.1009 10.2893C31.0964 10.2893 31.0926 10.2893 31.0881 10.2893C31.0887 10.2893 31.09 10.2893 31.0907 10.2893C30.8962 10.2734 30.7081 10.3192 30.5181 10.3511C30.6812 10.304 30.8513 10.2868 31.0169 10.2492C31.0149 10.2499 31.0124 10.2505 31.0104 10.2511C31.0643 10.239 31.1176 10.2269 31.1709 10.2123H31.1702C31.1709 10.2123 31.1715 10.2123 31.1715 10.2117C32.1536 9.92205 33.0772 10.4115 33.9206 10.8647C34.3237 11.1028 34.6516 11.444 34.9796 11.7724C34.807 11.6668 34.6581 11.5286 34.4944 11.4109C34.0246 11.0812 33.5573 10.7075 32.9905 10.5618C32.9912 10.5618 32.9918 10.5618 32.9918 10.5624C32.9373 10.5471 32.8814 10.5331 32.8269 10.5178C32.8288 10.5185 32.8301 10.5191 32.832 10.5191C32.8269 10.5178 32.8211 10.5159 32.816 10.5147C32.4341 10.4313 32.0618 10.2842 31.6658 10.2881C31.6677 10.2881 31.6696 10.2881 31.6715 10.2881C31.6677 10.2881 31.6638 10.2881 31.66 10.2881C31.6613 10.2881 31.6625 10.2881 31.6638 10.2881C31.6433 10.2881 31.6234 10.2874 31.6029 10.2874C31.6074 10.2874 31.6118 10.2874 31.6163 10.2874C31.5419 10.2861 31.4681 10.2861 31.3936 10.2855C31.393 10.2855 31.3943 10.2855 31.3955 10.2855ZM32.8711 10.6751C33.0855 10.7374 33.2973 10.8138 33.4918 10.9252C33.486 10.9214 33.4803 10.9182 33.4738 10.9144C34.0316 11.2295 34.5117 11.6547 35.0457 12.0028C35.0323 11.9984 35.0188 11.9939 35.0053 11.9895C34.6144 11.7864 34.1645 11.7317 33.7755 11.5274C33.072 11.0474 32.3936 10.4695 31.5053 10.3886C31.9809 10.367 32.4193 10.5573 32.8711 10.6751ZM36.8314 14.1511C36.8326 14.1511 36.8339 14.1504 36.8352 14.1504C36.8326 14.1511 36.8301 14.1517 36.8275 14.1524C36.8211 14.1536 36.8153 14.1555 36.8089 14.1568C36.8166 14.1549 36.8243 14.153 36.832 14.1511H36.8314ZM35.4758 16.2325C35.375 16.1154 35.2768 15.9951 35.1895 15.8678C36.5348 17.0517 38.2434 17.6857 39.6831 18.7315C39.66 18.7245 39.6369 18.7168 39.6131 18.7117C39.0258 18.6016 38.4174 18.7818 37.8384 18.5513C37.4803 18.4355 37.2306 18.1586 36.9745 17.9008C36.4032 17.4101 35.9321 16.8264 35.4758 16.2331C35.4751 16.2325 35.4745 16.2312 35.4738 16.2306C35.4751 16.2319 35.4758 16.2325 35.4758 16.2325C35.4764 16.2331 35.4758 16.2331 35.4758 16.2325ZM35.4604 16.2147L35.4597 16.214C35.4591 16.2128 35.4578 16.2121 35.4572 16.2109C35.4578 16.2121 35.4591 16.2134 35.4604 16.2147ZM35.9815 16.0715C35.9848 16.0727 35.9886 16.0734 35.9925 16.0746C36.6195 16.1981 37.1664 16.5094 37.6144 16.9581C37.9296 17.193 38.2826 17.3814 38.5387 17.6869C38.5425 17.6908 38.5457 17.6946 38.5496 17.6978C38.5477 17.6959 38.5457 17.6939 38.5438 17.692C38.6125 17.764 38.6799 17.8378 38.7492 17.9091C38.7466 17.9072 38.7453 17.9046 38.7428 17.9027C38.7447 17.9046 38.7466 17.9065 38.7486 17.9085C38.6221 17.8397 38.4976 17.7697 38.3718 17.7003C37.789 17.3827 37.1921 17.088 36.6285 16.7373C36.6337 16.7404 36.6394 16.7436 36.6446 16.7468C36.2248 16.4998 35.8198 16.2325 35.445 15.9219C35.617 15.9957 35.8063 16.0237 35.9867 16.0727C35.9841 16.0721 35.9828 16.0721 35.9815 16.0715ZM40.1606 29.7337C40.1619 29.735 40.1625 29.7356 40.1638 29.7369C40.1619 29.7343 40.1593 29.7324 40.1574 29.7299C40.1523 29.7241 40.1471 29.7184 40.142 29.7127C40.1478 29.7197 40.1542 29.7273 40.1606 29.7337C40.1606 29.7343 40.1606 29.7337 40.1606 29.7337ZM39.1029 25.399C39.221 24.9955 39.262 24.5741 39.3442 24.1629C39.3654 24.2806 39.3994 24.3946 39.4193 24.5123C39.4186 24.5072 39.4174 24.5015 39.4167 24.4964C39.4257 24.5537 39.4353 24.6104 39.445 24.6676C39.4443 24.6651 39.4443 24.6626 39.4437 24.6606C39.5361 25.1902 39.7158 25.7096 39.6016 26.2526C39.6016 26.2513 39.6016 26.25 39.6022 26.2481C39.3628 27.5027 39.7742 28.6898 40.2486 29.8336C40.2441 29.8279 40.2402 29.8215 40.2357 29.8158C39.1529 28.6491 38.4514 26.9451 39.1029 25.399ZM39.7614 26.2787C39.9283 25.4073 39.4334 24.5849 39.4039 23.7332C39.6151 24.443 40.0181 25.103 40.0669 25.8541C40.0753 27.2252 40.0335 28.6064 40.4719 29.924C40.0111 28.7598 39.572 27.5511 39.7614 26.2787ZM37.1183 29.4638C37.1183 29.4632 37.1183 29.4632 37.1189 29.4625C37.1195 29.4606 37.1202 29.4594 37.1208 29.4574C37.1195 29.46 37.1189 29.4619 37.1183 29.4638ZM33.4533 40.9326C33.4546 40.9313 33.4559 40.9307 33.4578 40.9294C33.4514 40.9339 33.445 40.939 33.4379 40.9434C33.4424 40.9402 33.4475 40.9364 33.452 40.9332C31.9893 41.9472 30.4931 42.9236 28.8493 43.6232L36.6683 35.8691C36.6876 36.0365 36.6844 36.2096 36.6523 36.3904C36.6516 36.3936 36.6516 36.3968 36.651 36.4C36.651 36.3993 36.651 36.3987 36.651 36.398C36.6491 36.4146 36.6478 36.4311 36.6459 36.4477C36.6465 36.4432 36.6465 36.4394 36.6471 36.435C36.6459 36.4445 36.6452 36.4547 36.6439 36.4642C36.6439 36.4623 36.6439 36.4611 36.6446 36.4592C36.6041 36.6259 36.5554 36.7914 36.5027 36.955C36.5053 36.9474 36.5079 36.9397 36.5104 36.9327C36.5066 36.9448 36.5027 36.9569 36.4982 36.969C36.4989 36.9665 36.5002 36.9633 36.5008 36.9607C36.4982 36.9677 36.4963 36.9754 36.4937 36.9824C36.4937 36.9817 36.4944 36.9805 36.4944 36.9798C36.2319 37.8372 35.7081 38.573 35.2094 39.3076C35.2113 39.3044 35.2139 39.3012 35.2158 39.298C34.7762 39.9657 34.083 40.4463 33.4533 40.9326ZM35.8551 38.8009C36.6818 37.736 36.8557 36.6329 37.0444 35.4967L40.0361 32.5299C39.9167 32.7794 39.8057 33.0022 39.7415 33.162C38.7088 35.2027 37.4661 37.1587 35.8551 38.8009Z" fill="none" stroke="#fff" stroke-width=".1px"/>
<path d="M26.4084 14.589H23.5688V14.8392H26.4084V14.589Z" fill="#fff" />
<path d="M26.4084 35.5406H23.5688V35.7908H26.4084V35.5406Z" fill="#fff" />
<path d="M34.1734 18.8352C34.1734 19.0714 34.0605 19.2088 33.8339 19.2464C33.6664 19.2464 33.5829 19.1662 33.5829 19.0058C33.5829 18.9396 33.6099 18.8759 33.6638 18.8142C33.7177 18.7531 33.7447 18.6939 33.7447 18.6373V18.6086C33.5874 18.6182 33.4103 18.6608 33.2132 18.7359C32.9867 18.8117 32.7652 18.9154 32.5496 19.0478C32.4019 19.1516 32.2299 19.298 32.0335 19.487L31.8859 19.6289C31.3641 20.205 30.8429 20.7817 30.3217 21.3577C30.253 21.4335 30.1837 21.5041 30.115 21.5703C30.0265 21.6461 29.9379 21.7263 29.8493 21.8116C29.1311 22.4443 28.3936 22.9357 27.6362 23.2851C27.9411 23.5308 28.1086 23.8141 28.1381 24.1355C28.1869 24.1826 28.2267 24.2303 28.2562 24.2774C28.5316 24.6651 28.6889 25.1323 28.7286 25.6803L28.832 27.0126C28.9398 28.2124 29.4366 28.812 30.3224 28.812C30.5682 28.812 30.814 28.7624 31.0598 28.6631C31.3057 28.5638 31.5175 28.4244 31.694 28.2449C31.7627 28.1787 31.8121 28.1456 31.8416 28.1456C31.8904 28.1456 31.9154 28.1742 31.9154 28.2309C31.9154 28.3346 31.7973 28.4575 31.5611 28.5994C31.3743 28.7223 31.1651 28.8165 30.934 28.8827C30.703 28.9489 30.4597 28.982 30.2036 28.982C29.1606 28.982 28.4231 28.5899 27.9905 27.8057C27.3609 28.6083 26.8641 29.01 26.5001 29.01C25.9982 29.01 25.7479 28.6319 25.7479 27.8763C25.7479 27.2907 25.9642 26.6816 26.3968 26.0482C26.6227 25.765 26.9084 25.4015 27.2524 24.9572C27.3506 24.8249 27.4295 24.7262 27.4886 24.66C27.4591 24.3392 27.3801 24.0604 27.2524 23.8242C27.1638 23.6543 27.0553 23.527 26.9276 23.4417H26.78C26.6324 23.4417 26.5143 23.4277 26.4257 23.3991H26.1747C25.8403 24.1266 25.4912 24.7828 25.1272 25.3684C24.9007 25.737 24.6696 26.0769 24.434 26.3888L24.4045 26.4314C24.2864 26.5829 24.1734 26.7242 24.065 26.8566C23.8975 27.0552 23.7428 27.2252 23.6003 27.3665C23.4578 27.5084 23.3172 27.6357 23.1799 27.749C23.0419 27.8623 22.8994 27.9667 22.7518 28.0609C22.624 28.1462 22.4809 28.2309 22.3236 28.3162C21.1433 29.0437 19.9385 29.4072 18.7088 29.4072C18.0104 29.4072 17.3859 29.1519 16.8352 28.6421C16.3628 28.1889 16.0682 27.6924 15.9501 27.1539C15.1041 26.5778 14.6812 25.6943 14.6812 24.504C14.6812 23.38 15.0303 22.4023 15.7286 21.571C16.427 20.7397 17.3121 20.2909 18.3846 20.2247C19.0733 19.261 20.2434 18.7792 21.8962 18.7792C22.5354 18.7792 23.2094 18.9065 23.9173 19.1617C24.3602 18.9542 24.7678 18.8499 25.142 18.8499C25.3782 18.8499 25.572 18.9065 25.7248 19.0198C25.8769 19.1331 25.9533 19.2846 25.9533 19.473C25.9533 19.6054 25.9238 19.7378 25.8647 19.8696C25.8352 19.9167 25.8005 19.9733 25.7614 20.0395C26.0663 20.2286 26.3564 20.4271 26.6317 20.6347L27.2806 20.1102L27.443 19.9829C27.9937 19.1802 28.4218 18.7786 28.7267 18.7786C28.805 18.7786 28.8448 18.8212 28.8448 18.9059C28.8448 18.953 28.8249 19.0147 28.7858 19.0898C28.9527 19.0141 29.0855 18.9765 29.1844 18.9765C29.253 18.9765 29.2877 19.0096 29.2877 19.0758C29.2877 19.1229 29.2434 19.1847 29.1548 19.2598C28.8596 19.5055 28.5964 19.7467 28.3654 19.9822C28.1343 20.2184 27.9103 20.4781 27.694 20.7613C27.5759 20.9128 27.4578 21.0732 27.3397 21.2432C27.4084 21.3189 27.4873 21.3991 27.5759 21.4844C27.5958 21.5035 27.6054 21.527 27.6054 21.5551C27.6054 21.5926 27.5906 21.6117 27.5611 21.6117C27.5316 21.6117 27.5072 21.5977 27.4873 21.5691C27.4084 21.4933 27.3346 21.4227 27.2659 21.3565C27.1972 21.4793 27.1234 21.6066 27.0444 21.739C26.8474 22.0789 26.6215 22.4856 26.366 22.9579C26.4251 22.9388 26.4989 22.9293 26.5874 22.9293C26.8333 22.9293 27.0547 22.9764 27.2511 23.0712C27.3198 23.0426 27.3936 23.0101 27.4725 22.9719C27.7184 22.8586 27.9745 22.7192 28.2396 22.5538C28.5053 22.3889 28.771 22.2018 29.0361 21.9943C29.1837 21.881 29.3211 21.7677 29.4494 21.6544C29.5675 21.5315 29.7004 21.3991 29.848 21.2578L30.556 20.5634L30.9103 20.1948C31.0284 20.072 31.1465 19.9542 31.2646 19.8403C31.3923 19.7174 31.5156 19.5946 31.6337 19.4717C32.4206 18.7633 33.0598 18.4087 33.5515 18.4087C33.6593 18.4087 33.753 18.4183 33.832 18.4374H33.9206C34.176 18.4374 34.3044 18.4896 34.3044 18.5933C34.3044 18.65 34.2749 18.6786 34.2158 18.6786C34.2062 18.6786 34.1811 18.6742 34.142 18.6646C34.1638 18.7219 34.1734 18.7786 34.1734 18.8352ZM18.2242 20.5354C17.2601 20.6582 16.4539 21.1114 15.8044 21.8956C15.1555 22.6798 14.8307 23.5817 14.8307 24.6021C14.8307 25.5938 15.1895 26.3735 15.9077 26.94C15.8487 26.6281 15.8191 26.3684 15.8191 26.1609C15.8191 25.3296 16.0156 24.541 16.409 23.7943C16.8121 23.0006 17.3776 22.3914 18.1061 21.9662C18.047 21.7492 18.0175 21.5551 18.0175 21.3851C18.0181 21.0834 18.0868 20.8001 18.2242 20.5354ZM16.6163 26.3028C16.6163 25.7834 16.7415 25.2876 16.9924 24.8147C17.2434 24.3424 17.5804 23.9267 18.0034 23.5677C18.2396 23.3691 18.5002 23.1947 18.7851 23.0432C18.5489 22.8357 18.3622 22.5805 18.2248 22.2781C17.5464 22.6938 17.0002 23.2539 16.5868 23.9573C16.1734 24.6613 15.9674 25.3812 15.9674 26.1183C15.9674 26.5059 15.9918 26.8032 16.0412 27.0113C16.2575 27.2003 16.5329 27.3423 16.8673 27.4365C16.8577 27.4269 16.8474 27.4129 16.8378 27.3938C16.6901 27.0635 16.6163 26.6994 16.6163 26.3028ZM19.6407 29.038C19.2075 29.038 18.807 28.9692 18.4385 28.8324C18.0695 28.6955 17.7473 28.5039 17.4719 28.2582C17.2652 28.0692 17.0932 27.8566 16.9552 27.6204C16.6304 27.5358 16.3506 27.4078 16.1144 27.2379C16.2421 27.7293 16.5322 28.1729 16.9847 28.5701C17.4764 29.0138 18.0419 29.2359 18.6818 29.2359C19.1734 29.2359 19.6407 29.1602 20.0836 29.0093C19.936 29.0284 19.7883 29.038 19.6407 29.038ZM22.3262 23.6104V23.5964C21.893 23.7008 21.4604 23.7523 21.0277 23.7523H20.9244C20.6292 24.6689 20.0541 25.259 19.1985 25.5237C19.09 25.5237 19.031 25.5047 19.0213 25.4671C19.0213 25.3818 19.0457 25.3372 19.0951 25.3322C19.1446 25.3277 19.228 25.3112 19.3461 25.2825C20.0053 25.0368 20.4873 24.527 20.7922 23.7523C20.0939 23.7148 19.5233 23.5537 19.0804 23.2705C18.8641 23.422 18.6619 23.5919 18.4758 23.7803C18.1215 24.1393 17.839 24.555 17.6272 25.0273C17.4154 25.4996 17.3102 25.9954 17.3102 26.5154C17.3102 26.912 17.3692 27.2621 17.4873 27.5638C17.6542 27.5733 17.8313 27.5778 18.0188 27.5778C19.081 27.5682 20.0451 27.2143 20.9103 26.5148C21.8538 25.7313 22.3262 24.7631 22.3262 23.6104ZM23.418 24.1775C23.418 24.5085 23.3371 24.8363 23.1747 25.1622C23.0123 25.4881 22.7883 25.7599 22.5034 25.977C22.4244 26.0336 22.3487 26.0832 22.2749 26.1259C22.201 26.1685 22.1446 26.1895 22.1054 26.1895C22.056 26.1895 22.0316 26.1609 22.0316 26.1043C22.0316 26.0756 22.0438 26.0527 22.0682 26.0336C22.0926 26.0151 22.1446 25.982 22.2229 25.9343C22.5079 25.7644 22.744 25.5161 22.9308 25.1902C23.1176 24.8643 23.2113 24.5359 23.2113 24.2055C23.2113 23.9032 23.1426 23.6384 23.0046 23.4118C22.8371 23.4684 22.6702 23.5155 22.5027 23.5537V23.653C22.5027 24.8624 22.0008 25.8637 20.9976 26.6574C20.0829 27.3754 19.0894 27.7344 18.0175 27.7344C17.8602 27.7344 17.7075 27.7299 17.5598 27.7204C17.658 27.9094 17.7858 28.0794 17.9437 28.2302C18.3763 28.6459 18.9668 28.8534 19.7139 28.8534C20.1272 28.8534 20.5053 28.7916 20.85 28.6694C21.0958 28.5275 21.3371 28.3575 21.5727 28.1596C22.1433 27.6777 22.866 26.7802 23.7415 25.4671C23.7903 25.3729 23.8448 25.2736 23.9039 25.1692L24.6414 23.837C24.9559 23.2418 25.384 22.6327 25.9251 22.0089C26.0624 21.8389 26.21 21.6734 26.3679 21.513C25.3448 22.3634 24.2922 22.9777 23.2107 23.3551C23.3487 23.5919 23.418 23.8656 23.418 24.1775ZM20.5849 21.4564C20.1811 20.8326 19.5419 20.5214 18.667 20.5214H18.4013C18.2537 20.7957 18.1799 21.0834 18.1799 21.3857C18.1799 21.5652 18.2043 21.7307 18.2537 21.8816C18.8243 21.5697 19.4783 21.4137 20.2158 21.4137C20.3737 21.4144 20.4963 21.4284 20.5849 21.4564ZM19.4931 22.718C19.9655 22.548 20.452 22.4487 20.9539 22.4201C20.934 22.1935 20.875 21.9669 20.7768 21.7396C20.5502 21.711 20.3782 21.697 20.2601 21.697C19.6009 21.697 18.9668 21.8625 18.357 22.1928C18.5046 22.4952 18.7062 22.7504 18.9616 22.9579C19.1292 22.8739 19.3063 22.7937 19.4931 22.718ZM26.8114 20.9746L26.6343 20.8472L26.5605 20.9039C26.3339 21.0929 26.1272 21.2298 25.9411 21.3151C25.7543 21.4004 25.5624 21.4424 25.366 21.4424C25.1394 21.4424 24.9475 21.3717 24.7909 21.2298C24.6337 21.0879 24.5547 20.923 24.5547 20.7339C24.5547 20.5831 24.5894 20.4411 24.658 20.3088C24.7171 20.1859 24.8249 20.0351 24.9828 19.8556C24.5791 19.6665 24.1812 19.5156 23.7877 19.4023C23.66 19.4685 23.5316 19.5392 23.4039 19.6149C23.1182 19.7944 22.8435 19.9975 22.5778 20.2241C22.3121 20.4507 22.1003 20.6773 21.9437 20.9045C21.8846 20.9803 21.8352 21.0178 21.796 21.0178C21.7569 21.0178 21.737 20.9987 21.737 20.9612C21.737 20.8759 21.8134 20.7486 21.9655 20.5786C22.1176 20.4087 22.3217 20.2152 22.5778 19.9975C22.9026 19.7333 23.2267 19.5112 23.5515 19.3317C23.0303 19.1993 22.5136 19.1331 22.0021 19.1331C20.4283 19.1331 19.307 19.4921 18.6381 20.2101H18.6677C19.6317 20.2101 20.35 20.6353 20.8217 21.4857C21.5098 21.6747 21.9873 22.0382 22.253 22.5767C22.4693 22.6524 22.6613 22.7606 22.8281 22.9026C22.936 22.9974 23.0348 23.0961 23.1234 23.1998C24.2736 22.7842 25.5034 22.0426 26.8114 20.9746ZM20.9687 22.704C20.9687 22.6664 20.9687 22.6282 20.9687 22.5907C20.5354 22.6193 20.1176 22.7231 19.7145 22.9026C19.5573 22.9783 19.4045 23.0585 19.2569 23.1438C19.6799 23.38 20.2062 23.5168 20.8358 23.555C20.9148 23.2985 20.9591 23.0152 20.9687 22.704ZM21.2935 22.4061C21.5489 22.4061 21.7903 22.4347 22.0162 22.4914C21.78 22.161 21.4212 21.9293 20.9392 21.7969C21.0079 21.986 21.0573 22.189 21.0868 22.4061H21.2935ZM22.3262 23.4404C22.3063 23.1763 22.2473 22.9395 22.1491 22.732C21.8737 22.6282 21.5541 22.576 21.1901 22.576H21.1016V22.718C21.1016 23.0203 21.0669 23.2991 20.9982 23.5537H21.1458C21.5001 23.5537 21.893 23.5162 22.3262 23.4404ZM22.6651 23.0152C22.5669 22.9395 22.4636 22.8784 22.3551 22.8313C22.4141 23.0012 22.4584 23.1903 22.488 23.3984C22.6253 23.3609 22.7684 23.3227 22.9161 23.2851C22.8474 23.1807 22.7639 23.091 22.6651 23.0152ZM25.2473 19.5156C25.296 19.4399 25.3211 19.3648 25.3211 19.289C25.3211 19.2133 25.289 19.1471 25.2254 19.0905C25.1613 19.0338 25.0855 19.0052 24.9969 19.0052C24.7999 19.0052 24.5592 19.0618 24.2742 19.1751C24.2248 19.1942 24.176 19.2133 24.1266 19.2318C24.3525 19.3171 24.5842 19.4157 24.8198 19.5297C24.9276 19.5768 25.031 19.629 25.1298 19.6856C25.1882 19.6194 25.2274 19.5628 25.2473 19.5156ZM25.5573 20.3374C25.4 20.5264 25.2967 20.6684 25.2473 20.7626C25.1978 20.8574 25.1734 20.9465 25.1734 21.0318C25.1734 21.098 25.2004 21.1572 25.2543 21.2088C25.3082 21.261 25.3647 21.2864 25.4238 21.2864C25.5316 21.2864 25.6696 21.2508 25.8371 21.1801C26.004 21.1095 26.1516 21.0223 26.28 20.9179L26.4867 20.748C26.2113 20.5494 25.936 20.3705 25.6606 20.2095C25.6208 20.2476 25.5868 20.2903 25.5573 20.3374ZM27.5637 26.0476L27.5489 25.7357L27.5194 25.7784C27.2736 26.0807 26.9244 26.5575 26.4719 27.2093C26.1767 27.672 26.029 28.0545 26.029 28.3569C26.029 28.7063 26.1863 28.8814 26.5014 28.8814C26.8358 28.8814 27.3127 28.4797 27.9328 27.6771C27.7261 27.243 27.6028 26.6994 27.5637 26.0476ZM26.9 20.8332C26.9886 20.6824 27.0772 20.5404 27.1657 20.408L26.7672 20.7339C26.8159 20.7721 26.8602 20.8046 26.9 20.8332ZM27.7704 23.7523C27.7408 23.5633 27.6471 23.4264 27.4899 23.3411C27.4212 23.3698 27.3474 23.3882 27.2684 23.3978C27.4552 23.5111 27.6227 23.6295 27.7704 23.7523ZM27.4308 23.1712C27.4507 23.1903 27.4751 23.2043 27.5046 23.2138C27.6523 23.1476 27.8147 23.0579 27.9918 22.9446C27.8147 23.0299 27.6279 23.105 27.4308 23.1712ZM27.5785 20.3514C27.5489 20.3794 27.5245 20.4081 27.5046 20.4361C27.6125 20.3323 27.7261 20.233 27.8442 20.1388C28.0804 19.9593 28.2646 19.8129 28.3975 19.6996C28.5303 19.5863 28.6336 19.501 28.7075 19.4444C28.7813 19.3877 28.8281 19.3476 28.8474 19.3241C28.8673 19.3005 28.8769 19.2795 28.8769 19.2604L28.8474 19.2464C28.798 19.2464 28.7293 19.27 28.6407 19.3171C28.5521 19.4304 28.4392 19.5532 28.3012 19.6856C28.0656 19.9027 27.8243 20.1248 27.5785 20.3514Z" fill="#fff" />
</svg>
